<?xml version="1.0" encoding="utf-8"?>
<!-- Generator: Adobe Illustrator 21.1.0, SVG Export Plug-In . SVG Version: 6.00 Build 0)  -->
<svg version="1.1" id="Layer_1" xmlns="http://www.w3.org/2000/svg" xmlns:xlink="http://www.w3.org/1999/xlink" x="0px" y="0px"
	 viewBox="0 0 195.8 33.6" style="enable-background:new 0 0 195.8 33.6;" xml:space="preserve">
<style type="text/css">
	.st0{enable-background:new    ;}
	.st1{fill:#FFFFFF;}
</style>
<title>tempur-flex-logotype</title>
<g>
	<g class="st0">
		<path class="st1" d="M24.7,33.7c-0.8,0-1.6-0.3-2.1-0.9c-0.8-0.8-0.8-1.6-0.8-3.4c0-1.8,0-2.6,0.8-3.4c0.6-0.6,1.3-0.9,2.1-0.9
			c1.5,0,2.6,0.9,2.9,2.5h-0.9c-0.2-1-0.9-1.7-2-1.7c-0.6,0-1.1,0.2-1.4,0.6c-0.5,0.5-0.6,1.1-0.6,2.9s0.1,2.3,0.6,2.9
			c0.4,0.4,0.9,0.6,1.4,0.6c1,0,1.8-0.7,2-1.7h0.9C27.3,32.8,26.2,33.7,24.7,33.7z"/>
	</g>
	<g class="st0">
		<path class="st1" d="M34.5,32.8c-0.6,0.6-1.3,0.9-2.1,0.9c-0.8,0-1.6-0.3-2.1-0.9c-0.8-0.8-0.8-1.6-0.8-3.4c0-1.8,0-2.6,0.8-3.4
			c0.6-0.6,1.3-0.9,2.1-0.9c0.8,0,1.6,0.3,2.1,0.9c0.8,0.8,0.8,1.6,0.8,3.4C35.3,31.2,35.3,32,34.5,32.8z M33.8,26.6
			c-0.4-0.4-0.9-0.6-1.4-0.6c-0.6,0-1.1,0.2-1.4,0.6c-0.5,0.5-0.6,1.1-0.6,2.9s0.1,2.3,0.6,2.9c0.4,0.4,0.9,0.6,1.4,0.6
			c0.6,0,1.1-0.2,1.4-0.6c0.5-0.5,0.6-1.1,0.6-2.9S34.4,27.1,33.8,26.6z"/>
	</g>
	<g class="st0">
		<path class="st1" d="M37.8,33.6v-8.4h0.9v7.6h4.3v0.8H37.8z"/>
		<path class="st1" d="M44.5,33.6v-8.4h0.9v7.6h4.3v0.8H44.5z"/>
	</g>
	<g class="st0">
		<path class="st1" d="M52,33.6v-8.4h5.2V26h-4.3v3h3.7v0.8h-3.7v3h4.3v0.8H52z"/>
	</g>
	<g class="st0">
		<path class="st1" d="M62,33.7c-0.8,0-1.6-0.3-2.1-0.9c-0.8-0.8-0.8-1.6-0.8-3.4c0-1.8,0-2.6,0.8-3.4c0.6-0.6,1.3-0.9,2.1-0.9
			c1.5,0,2.6,0.9,2.9,2.5H64c-0.2-1-0.9-1.7-2-1.7c-0.6,0-1.1,0.2-1.4,0.6c-0.5,0.5-0.6,1.1-0.6,2.9s0.1,2.3,0.6,2.9
			c0.4,0.4,0.9,0.6,1.4,0.6c1,0,1.8-0.7,2-1.7h0.9C64.6,32.8,63.5,33.7,62,33.7z"/>
	</g>
	<g class="st0">
		<path class="st1" d="M69.4,26v7.6h-0.9V26h-2.4v-0.8h5.7V26H69.4z"/>
		<path class="st1" d="M73.4,33.6v-8.4h0.9v8.4H73.4z"/>
		<path class="st1" d="M81.5,32.8c-0.6,0.6-1.3,0.9-2.1,0.9c-0.8,0-1.6-0.3-2.1-0.9c-0.8-0.8-0.8-1.6-0.8-3.4c0-1.8,0-2.6,0.8-3.4
			c0.6-0.6,1.3-0.9,2.1-0.9c0.8,0,1.6,0.3,2.1,0.9c0.8,0.8,0.8,1.6,0.8,3.4C82.3,31.2,82.3,32,81.5,32.8z M80.8,26.6
			c-0.4-0.4-0.9-0.6-1.4-0.6c-0.6,0-1.1,0.2-1.4,0.6c-0.5,0.5-0.6,1.1-0.6,2.9s0.1,2.3,0.6,2.9c0.4,0.4,0.9,0.6,1.4,0.6
			c0.6,0,1.1-0.2,1.4-0.6c0.5-0.5,0.6-1.1,0.6-2.9S81.3,27.1,80.8,26.6z"/>
	</g>
	<g class="st0">
		<path class="st1" d="M90.8,33.6l-4.4-6.7v6.7h-0.9v-8.4h0.8l4.4,6.7v-6.7h0.9v8.4H90.8z"/>
	</g>
	<g class="st0">
		<path class="st1" d="M27.8,4.6v14.5h-1.7V4.6h-4.6V3.1h11v1.5H27.8z"/>
		<path class="st1" d="M35.5,19.2V3.1h10v1.5h-8.3v5.7h7v1.5h-7v5.8h8.3v1.5H35.5z"/>
		<path class="st1" d="M61.1,19.2V7l-4.4,9.7h-1.5L50.7,7v12.2H49V3.1h1.7L56,14.5l5.1-11.4h1.7v16.1H61.1z"/>
		<path class="st1" d="M73.4,12.5h-4.3v6.6h-1.7V3.1h6c2.9,0,5,1.8,5,4.7S76.3,12.5,73.4,12.5z M73.2,4.6h-4.1V11h4.1
			c2,0,3.4-1.1,3.4-3.2S75.2,4.6,73.2,4.6z"/>
		<path class="st1" d="M87,19.3c-3.2,0-5.6-2.2-5.6-5.4V3.1h1.7v10.6c0,2.4,1.5,4,3.9,4c2.3,0,3.9-1.6,3.9-4V3.1h1.7v10.8
			C92.6,17.1,90.2,19.3,87,19.3z"/>
		<path class="st1" d="M106.2,19.2l-3.7-7.1h-3.9v7.1H97V3.1h6.2c2.8,0,4.8,1.7,4.8,4.5c0,2.3-1.4,3.9-3.5,4.3l3.8,7.3H106.2z
			 M103,4.6h-4.3v5.9h4.3c1.9,0,3.2-1,3.2-2.9S104.9,4.6,103,4.6z"/>
	</g>
	<g class="st0">
		<path class="st1" d="M110.1,12.4v-1.6h6.4v1.6H110.1z"/>
	</g>
	<g class="st0">
		<path class="st1" d="M126.6,19.2h-6.4V2.6h6.2c2.9,0,4.9,1.7,4.9,4.4c0,1.7-1,3.1-2.4,3.6c1.6,0.6,2.7,2,2.7,3.9
			C131.6,17.6,129.6,19.2,126.6,19.2z M126.3,4.2H122v5.7h4.3c1.8,0,3.3-0.9,3.3-2.9S128.1,4.2,126.3,4.2z M126.5,11.5H122v6.1h4.5
			c2,0,3.3-1.2,3.3-3S128.5,11.5,126.5,11.5z"/>
		<path class="st1" d="M141.8,9.9c-0.6-0.6-1.1-0.8-2-0.8c-1.7,0-2.7,1.3-2.7,3.1v7h-1.7V7.7h1.7v1.4c0.6-1,1.9-1.5,3.2-1.5
			c1.1,0,1.9,0.3,2.7,1.1L141.8,9.9z"/>
		<path class="st1" d="M145.5,13.9c0,2.5,1.2,4,3.4,4c1.3,0,2.1-0.4,3-1.3l1.1,1c-1.2,1.2-2.2,1.8-4.2,1.8c-3,0-5-1.8-5-5.9
			c0-3.7,1.8-5.9,4.7-5.9c3,0,4.7,2.1,4.7,5.5v0.8H145.5z M151.2,10.7c-0.4-1-1.5-1.7-2.7-1.7s-2.2,0.7-2.7,1.7
			c-0.3,0.6-0.3,1-0.3,1.9h6C151.5,11.7,151.4,11.4,151.2,10.7z"/>
		<path class="st1" d="M157.8,13.9c0,2.5,1.2,4,3.4,4c1.3,0,2.1-0.4,3-1.3l1.1,1c-1.2,1.2-2.2,1.8-4.2,1.8c-3,0-5-1.8-5-5.9
			c0-3.7,1.8-5.9,4.7-5.9c3,0,4.7,2.1,4.7,5.5v0.8H157.8z M163.5,10.7C163,9.7,162,9,160.8,9c-1.2,0-2.2,0.7-2.7,1.7
			c-0.3,0.6-0.3,1-0.3,1.9h6C163.8,11.7,163.7,11.4,163.5,10.7z"/>
		<path class="st1" d="M168.1,19.2v-1.4l6.4-8.5h-6V7.7h7.9v1.4l-6.4,8.5h6.4v1.5H168.1z"/>
		<path class="st1" d="M180.8,13.9c0,2.5,1.2,4,3.4,4c1.3,0,2.1-0.4,3-1.3l1.1,1c-1.2,1.2-2.2,1.8-4.2,1.8c-3,0-5-1.8-5-5.9
			c0-3.7,1.8-5.9,4.7-5.9c3,0,4.7,2.1,4.7,5.5v0.8H180.8z M186.5,10.7C186,9.7,185,9,183.8,9s-2.2,0.7-2.7,1.7
			c-0.3,0.6-0.3,1-0.3,1.9h6C186.8,11.7,186.7,11.4,186.5,10.7z"/>
	</g>
	<g class="st0">
		<path class="st1" d="M193.1,10.6c-1.2,0-2.2-1-2.2-2.2c0-1.2,1-2.2,2.2-2.2c1.2,0,2.2,1,2.2,2.2C195.3,9.6,194.3,10.6,193.1,10.6z
			 M193.1,6.6c-1,0-1.8,0.8-1.8,1.9s0.8,1.9,1.8,1.9s1.8-0.8,1.8-1.9S194.1,6.6,193.1,6.6z M193.6,9.6l-0.5-1h-0.4v1h-0.3V7.2h0.8
			c0.4,0,0.8,0.3,0.8,0.7c0,0.3-0.2,0.6-0.5,0.7l0.6,1H193.6z M193.1,7.5h-0.4v0.8h0.4c0.3,0,0.5-0.2,0.5-0.4
			C193.6,7.7,193.4,7.5,193.1,7.5z"/>
	</g>
	<g>
		<g class="st0">
			<path class="st1" d="M110.4,12.4v-1.6h6.4v1.6H110.4z"/>
		</g>
		<g>
			<path class="st1" d="M7.8,5.7c1.2,0,2.1-1,2.1-2.1c0-1.2-1-2.1-2.1-2.1c-1.2,0-2.1,1-2.1,2.1S6.6,5.7,7.8,5.7"/>
		</g>
		<g>
			<path class="st1" d="M7.8,18.1c1.2,0,2.1-1,2.1-2.1c0-1.2-1-2.1-2.1-2.1c-1.2,0-2.1,1-2.1,2.1S6.6,18.1,7.8,18.1"/>
		</g>
		<g>
			<path class="st1" d="M13.4,15.2c1.2,0,2.1-1,2.1-2.1c0-1.2-1-2.1-2.1-2.1c-1.2,0-2.1,1-2.1,2.1C11.3,14.2,12.3,15.2,13.4,15.2"/>
		</g>
		<g>
			<path class="st1" d="M2.2,15.2c1.2,0,2.1-1,2.1-2.1c0-1.2-1-2.1-2.1-2.1c-1.2,0-2.1,1-2.1,2.1C0.1,14.2,1.1,15.2,2.2,15.2"/>
		</g>
		<g>
			<path class="st1" d="M13.4,8.8c1.2,0,2.1-1,2.1-2.1c0-1.2-1-2.1-2.1-2.1c-1.2,0-2.1,1-2.1,2.1C11.3,7.9,12.3,8.8,13.4,8.8"/>
		</g>
		<g>
			<path class="st1" d="M2.2,8.8c1.2,0,2.1-1,2.1-2.1c0-1.2-1-2.1-2.1-2.1c-1.2,0-2.1,1-2.1,2.1C0.1,7.9,1.1,8.8,2.2,8.8"/>
		</g>
	</g>
</g>
</svg>
