<svg xmlns="http://www.w3.org/2000/svg" viewBox="0 0 291.61 119.65"><defs><style>.cls-1{fill:#77bd43;}.cls-2{fill:#232c64;}</style></defs><title>tp-logo</title><g id="Layer_2" data-name="Layer 2"><g id="header"><path id="_-Pedic_" data-name="&lt;-Pedic&gt;" class="cls-1" d="M185.7,79.45H190v-12h4.23c5.42,0,10.64-2.37,10.64-9,0-6.86-5.13-9-11.29-9H185.7ZM190,53.66h3.61c2.64,0,6.54,1.36,6.54,5.09,0,3.9-3.31,5.22-6,5.22H190Zm37,25.79h8.88c9.92,0,16-5.22,16-15.3,0-9.27-7.12-14.79-16-14.79H227Zm4.3-25.79h5c6.17,0,10.92,4.11,10.92,11.09,0,7.7-4.07,11.26-11.43,11.26h-4.5Zm23.21,25.79h4.3V49.36h-4.3Zm29.67-29.12A16.38,16.38,0,0,0,277.46,49c-9.09,0-15.74,6.11-15.74,15.27,0,9.47,6.27,15.52,15.7,15.52a18.64,18.64,0,0,0,6.77-1.06l-.25-4.14a14.71,14.71,0,0,1-6.48,1.45c-6.19,0-11.22-4.65-11.22-11.64,0-6.69,4.57-11.64,11.43-11.64a12,12,0,0,1,6.15,1.66Zm2.64,1.3a2.41,2.41,0,1,0,2.41-2.42,2.42,2.42,0,0,0-2.41,2.42m4.24,0a1.83,1.83,0,1,1-1.83-1.95A1.85,1.85,0,0,1,291,51.64m-3,1.17h.86v-.86h.22l.71.86h.15l-.69-1.13a.64.64,0,0,0,.67-.69c0-.54-.33-.76-.95-.76h-1Zm.86-2.58h.49c.29,0,.61.06.61.41s-.28.45-.61.45h-.49ZM170.22,67.42H181.4v-4.3H170.22Zm37,12h16.33V76h-12V65.7h11.18V62.26H211.49v-8.6h12v-4.3H207.19Z"/><path id="_Tempur_" data-name="&lt;Tempur&gt;" class="cls-2" d="M7.74,79.45h7.74V55.38h6.88v-6H0v6H7.74Zm17.19,0H46.42v-6H32.67v-6h12v-6h-12v-6h12.9v-6H24.93Zm24.07,0h7.74l-.17-23.21h0l7.34,23.21h7.39L79,56.24h.08L79,79.45h7.86V49.36H74.71L68,69.14H68L61.6,49.36H49Zm42.13,0h7.74V69.14H102c7.58,0,12.06-3.66,12.06-9.8,0-6.84-4.36-10-13.63-10h-9.3Zm7.74-24.07h2c2.6,0,4.68.94,4.68,3.83s-2.08,3.91-4.68,3.91h-2Zm43-6h-7.74V66.51c0,3.92-1.08,7.25-5.16,7.25s-5.16-3.33-5.16-7.25V49.36h-7.74V67.82c0,8.15,5.23,11.81,12.9,11.81s12.9-3.66,12.9-11.81Zm3.44,30.09H153v-12h1.7c3,0,4.05,1.31,5.71,6.54l1.74,5.5h8.29l-2.91-8.2c-1.49-3.66-1.66-5.94-4.22-6.64v-.09c3.84-.9,5.72-3.57,5.72-7.58,0-5.17-4.31-7.59-9.59-7.59H145.29ZM153,55.38h2.13c3.09,0,5.92.52,5.92,3.35,0,3.44-3.31,3.52-5.92,3.52H153Z"/><path id="_Figure_" data-name="&lt;Figure&gt;" class="cls-2" d="M85.73,25.94a.2.2,0,0,1,.24-.16h0l.47.1c9.44.68,16.11.83,21,.45,5.34-.41,14.89,1,17.7,1.43a.21.21,0,0,1,.17.23.09.09,0,0,1,0,0,.21.21,0,0,1-.23.19,72.65,72.65,0,0,0-14.41-.44c-3.47.27-15.32.92-24.27-1.44h-.12l-.38-.1h0a.22.22,0,0,1-.15-.22.26.26,0,0,1,0-.05m173.4,7.57c-.85-.83-2.13-.65-3.17-.5-.64.09-1.24.18-1.49,0-3.43-2.8-5-1.77-7.05-.36l-.84.55-1.24.57c-.81.39-1.72.79-2.71,1.16a15.94,15.94,0,0,1-5.23.3c-3.58-.33-8-2.45-12.72-4.68-6.85-3.26-14.62-7-22.27-6.52-12.68.73-17.16-.43-29.93-7.76C156,6.82,147,3.78,133.74,9.44l-.67.26c-.72.26-1.44.51-2.17.82-.4.17-.75.29-1.13.45C120,14.3,115.2,12.11,105.13,7.51L97.28,4C80.62-3,75.59-.22,71.69,7.87,69.21,13,66.8,16.34,64.38,18a11.15,11.15,0,0,0-7.18-6,36.59,36.59,0,0,1-7.62-2.73,11.42,11.42,0,0,0-6.76-3.61,13.52,13.52,0,0,0-11,2.54,11.4,11.4,0,0,0-4.3,10.48,17.17,17.17,0,0,0,3.89,8.89.22.22,0,0,0,.31,0,.22.22,0,0,0,0-.3,12.52,12.52,0,0,1-2.89-7.29c-.28-3.45.55-7.15,3.37-9.65A12,12,0,0,1,43.3,7.7c4.36,1.08,6.54,5.44,7.84,9.17,1.44,4.13,2.93,8.4,9.81,7.9a8.67,8.67,0,0,1,8.79,5c1.5,3.43.41,7.34-2.92,10.46a.22.22,0,0,0,.3.33L68.63,39c3.1-3.45,3.83-7.35,2.21-10.83-1.46-3.14-4.66-4.95-8.56-4.83-7.06.21-8.07-3.23-9.25-7.23a16,16,0,0,0-2.4-5,18.43,18.43,0,0,0,5.9,2.17,11.11,11.11,0,0,1,6.62,5.33,6.28,6.28,0,0,1-.91.32c-1.75.44-3.55,0-5.49-1.42l-.49-.33h0a.23.23,0,0,0-.31,0,.23.23,0,0,0,0,.13.22.22,0,0,0,.1.18h0l.33.25a1.29,1.29,0,0,1,.15.08c1.66,1.15,4,2.38,6.62,1.72,3.18-.79,6.14-4.1,9-10.13C75.79,1.94,79-.47,96,6.15c3.59,1.4,6.52,2.7,9.1,3.83,9.51,4.21,13.68,6,24.94,1.38,1-.34,2.06-.75,3.15-1.21,12-4.32,22.16-.6,38.2,8.61,9.72,5.57,15.68,5.9,23.23,6.3,2.58.14,5.24.29,8.33.64,8.5,1,14.53,3.93,19.86,6.52l0,0c-14.25-4.84-20.73-3.55-26.52-2.39-3.66.73-6.82,1.37-11.44.32-19.62-4.43-27.12-3.24-31.54-2.45a7.38,7.38,0,0,0,1.35-5.55,16.58,16.58,0,0,0-1.52-5.07.19.19,0,0,0-.2-.11h-.06a.2.2,0,0,0-.12.2.21.21,0,0,0,0,.06,10.72,10.72,0,0,1,.94,3.32,8.18,8.18,0,0,1-3.73,8,.19.19,0,0,0-.09.19h0a.2.2,0,0,0,.13.17,4.22,4.22,0,0,1,2.19,2.4,10.23,10.23,0,0,1,.76,2.95,11.51,11.51,0,0,1-.81,5.69.31.31,0,0,0,0,.1.19.19,0,0,0,.11.15.19.19,0,0,0,.25-.05.2.2,0,0,1,0,0h0a11.36,11.36,0,0,0,1.71-7.57,9.27,9.27,0,0,0-.25-1.39,5.61,5.61,0,0,0-.61-1.48h0l.55-.1c4.41-.82,11.09-2.06,31.2,1.69a33.91,33.91,0,0,0,11.48,0c6.41-.77,14.39-1.74,33.86,4.25h0a19,19,0,0,0,4,.84,18,18,0,0,0,8.36-1.06,13.09,13.09,0,0,0,3.8-1.64c2.23-1,4.05-1.37,6.91,1,.42.34,1.16.23,2,.1,1.1-.17,2.34-.36,3.11.34,1,.72.6,3.68.51,5.22a.22.22,0,0,0,.45,0s0,0,0-.06h0c.08-.64.37-3.3.37-3.82a4,4,0,0,0-.87-2.92M63.66,27.64c-3.89-2.54-9.21-.66-14.08,1.77-11.69,5.83-12.38-.11-21.36-.11-4.81,0-5.34,3.87-5.34,5.37a16,16,0,0,0,1.18,5.69v0h0v0a.23.23,0,0,0,.42-.17c-1-2.63-1.29-8.31,4-8.31,7.94,0,10.12,5.84,21.85-.26,4.27-2.22,8.29-3.9,11.84-1.51,2.47,1.67,3.66,5.61,1.57,10.06a.22.22,0,0,0,.07.27.22.22,0,0,0,.28,0l.16-.14,0-.06c2.87-5.66,3.77-9.74-.65-12.62"/><path id="_TSIP_" data-name="&lt;TSIP&gt;" class="cls-1" d="M193.1,119.65"/><path id="_Path_" data-name="&lt;Path&gt;" class="cls-1" d="M.69,116a.48.48,0,0,1,0-.67l3-3.43a.39.39,0,0,1,.59,0,11.37,11.37,0,0,0,7,2.76c2.8,0,4.37-1.3,4.37-3.19,0-1.58-.95-2.56-4.14-3l-1.42-.2c-5.43-.75-8.47-3.31-8.47-8,0-4.92,3.7-8.19,9.49-8.19a15.15,15.15,0,0,1,9.1,2.8c.24.16.28.32.08.59L17.86,99a.39.39,0,0,1-.55.12,11.06,11.06,0,0,0-6.22-2C8.72,97,7.5,98.27,7.5,100c0,1.54,1.1,2.52,4.17,3l1.42.2c5.51.75,8.43,3.27,8.43,8.11s-3.58,8.43-10.51,8.43C6.83,119.65,2.77,118,.69,116Z"/><path id="_Path_2" data-name="&lt;Path&gt;" class="cls-1" d="M24.93,92.74a.39.39,0,0,1,.39-.39h5.23a.39.39,0,0,1,.39.39v20.86a.24.24,0,0,0,.24.24H42.59a.39.39,0,0,1,.39.39v4.37a.39.39,0,0,1-.39.39H25.33a.39.39,0,0,1-.39-.39Z"/><path id="_Path_3" data-name="&lt;Path&gt;" class="cls-1" d="M44.71,92.74a.39.39,0,0,1,.39-.39H62.37a.39.39,0,0,1,.39.39v4.37a.39.39,0,0,1-.39.39H51a.24.24,0,0,0-.24.24v5.55a.24.24,0,0,0,.24.24h9.69a.39.39,0,0,1,.39.39v4.37a.39.39,0,0,1-.39.39H50.58s-.24-.42.14-.26V114c-.38.16-.3.24-.14-.14H62.12a5.2,5.2,0,0,0,.64.77v4a.39.39,0,0,1-.39.39H45.1a.39.39,0,0,1-.39-.39Z"/><path id="_Path_4" data-name="&lt;Path&gt;" class="cls-1" d="M66.2,92.74a.39.39,0,0,1,.39-.39H83.86a.39.39,0,0,1,.39.39v4.37a.39.39,0,0,1-.39.39H72.45a.24.24,0,0,0-.24.24v5.55a.24.24,0,0,0,.24.24h9.69a.39.39,0,0,1,.39.39v4.37a.39.39,0,0,1-.39.39H72.09s-.24-.42.13-.26V114c-.37.16-.29.24-.13-.14H83.62a5.46,5.46,0,0,0,.63.77v4a.39.39,0,0,1-.39.39H66.59a.39.39,0,0,1-.39-.39Z"/><path class="cls-1" d="M97.85,92.35H87.23a.39.39,0,0,0-.39.39v25.86a.39.39,0,0,0,.39.39h5.23a.39.39,0,0,0,.39-.39v-8.83a.24.24,0,0,1,.24-.24h4.76c5.78,0,9.33-3.54,9.33-8.58S103.67,92.35,97.85,92.35Zm-1.42,12h-4.2a.24.24,0,0,1-.24-.24V97.74a.24.24,0,0,1,.24-.24h4.2c2.33,0,3.72,1.39,3.72,3.46S98.75,104.39,96.42,104.39Z"/><rect id="_Path_5" data-name="&lt;Path&gt;" class="cls-1" x="120.36" y="92.35" width="6.02" height="26.65" rx="0.39" ry="0.39"/><path id="_Path_6" data-name="&lt;Path&gt;" class="cls-1" d="M128.26,116a.48.48,0,0,1,0-.67l3-3.43a.39.39,0,0,1,.59,0,11.37,11.37,0,0,0,7,2.76c2.8,0,4.37-1.3,4.37-3.19,0-1.58-.95-2.56-4.14-3l-1.42-.2c-5.43-.75-8.47-3.31-8.47-8,0-4.92,3.7-8.19,9.49-8.19a15.15,15.15,0,0,1,9.1,2.8c.24.16.28.32.08.59L145.43,99a.39.39,0,0,1-.55.12,11.06,11.06,0,0,0-6.22-2c-2.36,0-3.58,1.22-3.58,2.91,0,1.54,1.1,2.52,4.17,3l1.42.2c5.51.75,8.43,3.27,8.43,8.11s-3.58,8.43-10.51,8.43C134.4,119.65,130.35,118,128.26,116Z"/><path class="cls-1" d="M175.22,92.35H164.6a.39.39,0,0,0-.39.39v25.86a.39.39,0,0,0,.39.39h5.23a.39.39,0,0,0,.39-.39v-8.83a.24.24,0,0,1,.24-.24h4.76c5.78,0,9.33-3.54,9.33-8.58S181,92.35,175.22,92.35Zm-.56,12h-4.2a.24.24,0,0,1-.24-.24V97.74a.24.24,0,0,1,.24-.24h4.2c2.33,0,3.72,1.39,3.72,3.46S177,104.39,174.66,104.39Z"/><path class="cls-1" d="M207,98.5c-1.38-4.33-5.08-6.5-9.77-6.5s-8.39,2.17-9.77,6.5c-.59,1.85-.75,3.35-.75,7.33s.16,5.47.75,7.32c1.38,4.33,5.08,6.5,9.77,6.5s8.39-2.17,9.77-6.5c.59-1.85.75-3.35.75-7.32S207.56,100.35,207,98.5Zm-5.55,13.07a4.48,4.48,0,0,1-8.43,0c-.32-.95-.43-2.24-.43-5.75s.12-4.8.43-5.75a4.48,4.48,0,0,1,8.43,0c.32.94.43,2.24.43,5.75S201.73,110.63,201.42,111.58Z"/><path id="_Path_7" data-name="&lt;Path&gt;" class="cls-1" d="M229.7,119a.51.51,0,0,1-.52-.4l-4.69-16.8h-.08l-4.73,16.8a.51.51,0,0,1-.52.4h-3.91a.5.5,0,0,1-.47-.39l-6.9-25.87c0-.24,0-.39.31-.39h5.07a.44.44,0,0,1,.47.39l3.86,16.8h.08l4.56-16.8a.51.51,0,0,1,.51-.39h3.42a.5.5,0,0,1,.47.39l4.72,16.8h.08l3.7-16.8a.42.42,0,0,1,.47-.39h5c.27,0,.35.16.31.39l-6.86,25.87a.48.48,0,0,1-.51.39Z"/><path id="_Path_8" data-name="&lt;Path&gt;" class="cls-1" d="M242.44,92.74a.39.39,0,0,1,.39-.39H260.1a.39.39,0,0,1,.39.39v4.37a.39.39,0,0,1-.39.39H247.83a.24.24,0,0,0-.24.24v5.55a.24.24,0,0,0,.24.24h9.69a.39.39,0,0,1,.39.39v4.37a.39.39,0,0,1-.39.39h-9.24s-.24-.42.18-.26V114c-.41.16-.33.24-.18-.14h11.54a4.53,4.53,0,0,0,.67.77v4a.39.39,0,0,1-.39.39H242.83a.39.39,0,0,1-.39-.39Z"/><path class="cls-1" d="M284.51,118.53,279.26,108a7.81,7.81,0,0,0,4.74-7.41c0-4.86-3.61-8.27-9.05-8.27H264.33a.39.39,0,0,0-.39.39v25.86a.39.39,0,0,0,.39.39h5.23a.39.39,0,0,0,.39-.39v-9.69a.24.24,0,0,1,.24-.24h3.73l4.79,9.92a.55.55,0,0,0,.61.4h4.91A.3.3,0,0,0,284.51,118.53Zm-9.43-14.14h-4.89a.24.24,0,0,1-.24-.24V97.74a.24.24,0,0,1,.24-.24h4.89c2.28,0,3.74,1.34,3.74,3.42S277.36,104.39,275.08,104.39Z"/><rect id="_Path_9" data-name="&lt;Path&gt;" class="cls-1" x="285.43" y="113.84" width="5.16" height="5.16" rx="0.39" ry="0.39"/></g></g></svg>