<svg xmlns="http://www.w3.org/2000/svg" viewBox="0 0 66.35 71.85"><defs><style>.cls-1{fill:#fff;}</style></defs><title>breeze_icon</title><g id="Layer_2" data-name="Layer 2"><g id="Layer_1-2" data-name="Layer 1"><path id="Breeze_icon" data-name="Breeze icon" class="cls-1" d="M63.2,39.38,50,42.86,38.08,35.93l11.87-6.87,13.27,3.58a2.45,2.45,0,0,0,.65.09,2.48,2.48,0,0,0,.65-4.87L56,25.57l7.44-4.3A2.44,2.44,0,1,0,61,17L53.64,21.3l2.26-8.39a2.48,2.48,0,1,0-4.78-1.29L47.56,24.81,35.62,31.72V17.95l9.69-9.69a2.48,2.48,0,1,0-3.5-3.5l-6.19,6.19V2.44a2.44,2.44,0,1,0-4.88,0v8.51L24.55,4.76A2.48,2.48,0,0,0,21,8.26l9.69,9.69V31.67L18.85,24.75,15.35,11.52a2.48,2.48,0,0,0-4.79,1.26l2.23,8.45L5.48,17A2.44,2.44,0,0,0,3,21.2l7.33,4.26L1.87,27.7a2.48,2.48,0,0,0,1.27,4.79L16.41,29l11.94,6.94L16.45,42.81,3.12,39.21A2.48,2.48,0,1,0,1.83,44l8.57,2.31L3,50.59a2.44,2.44,0,1,0,2.44,4.22l7.25-4.19L10.43,59a2.47,2.47,0,0,0,1.75,3,2.35,2.35,0,0,0,.65.09,2.48,2.48,0,0,0,2.39-1.83L18.76,47.1l12-6.92V53.92L21,63.61a2.47,2.47,0,0,0,3.5,3.5l6.19-6.18v8.49a2.44,2.44,0,0,0,4.88,0V60.92l6.19,6.18a2.48,2.48,0,0,0,3.5-3.5l-9.69-9.69V40.14L47.48,47,51,60.34a2.48,2.48,0,0,0,4.79-1.26l-2.25-8.52L61,54.87a2.44,2.44,0,1,0,2.45-4.22l-7.35-4.27,8.41-2.22a2.48,2.48,0,0,0-1.26-4.79"/></g></g></svg>