<svg xmlns="http://www.w3.org/2000/svg" viewBox="0 0 24 24"><defs><style>.cls-1{fill:#fff;}.cls-2{fill:#58585a;}</style></defs><title>C</title><g id="Layer_2" data-name="Layer 2"><g id="Layer_1-2" data-name="Layer 1"><circle class="cls-1" cx="12" cy="12" r="12"/><path class="cls-2" d="M12.17,17.71a3.93,3.93,0,0,1-2.89-1.18,3.11,3.11,0,0,1-.87-1.61,14.71,14.71,0,0,1-.18-2.67A14.69,14.69,0,0,1,8.4,9.58,3,3,0,0,1,9.27,8,3.93,3.93,0,0,1,12.17,6.8a3.78,3.78,0,0,1,3.95,3.39H14a1.77,1.77,0,0,0-1.81-1.52,1.66,1.66,0,0,0-1.34.56c-.44.47-.53,1-.53,3s.09,2.56.53,3a1.66,1.66,0,0,0,1.34.56A1.77,1.77,0,0,0,14,14.32h2.12A3.79,3.79,0,0,1,12.17,17.71Z"/></g></g></svg>