<svg xmlns="http://www.w3.org/2000/svg" viewBox="0 0 24 24"><defs><style>.cls-1{fill:#fff;}.cls-2{fill:#58585a;}</style></defs><title>D</title><g id="Layer_2" data-name="Layer 2"><g id="Layer_1-2" data-name="Layer 1"><circle class="cls-1" cx="12" cy="12" r="12"/><path class="cls-2" d="M15,16.59a3.9,3.9,0,0,1-2.83,1H8.29V6.89h3.87a3.91,3.91,0,0,1,2.83,1c1.2,1.21,1.08,2.68,1.08,4.3S16.19,15.39,15,16.59ZM13.53,9.42A1.87,1.87,0,0,0,12,8.76H10.38v7H12a1.87,1.87,0,0,0,1.57-.66c.39-.48.45-1.25.45-2.88S13.92,9.9,13.53,9.42Z"/></g></g></svg>