<svg xmlns="http://www.w3.org/2000/svg" viewBox="0 0 133.64 20.52"><defs><style>.cls-1{fill:#fff;}</style></defs><title>five-star</title><g id="Layer_2" data-name="Layer 2"><g id="header"><g id="five_stars" data-name="five stars"><polygon class="cls-1" points="10.79 0 13.33 7.84 21.57 7.84 14.91 12.68 17.45 20.52 10.79 15.67 4.12 20.52 6.67 12.68 0 7.84 8.24 7.84 10.79 0"/><polygon class="cls-1" points="38.8 0 41.35 7.84 49.59 7.84 42.92 12.68 45.47 20.52 38.8 15.67 32.14 20.52 34.68 12.68 28.02 7.84 36.26 7.84 38.8 0"/><polygon class="cls-1" points="66.82 0 69.37 7.84 77.61 7.84 70.94 12.68 73.49 20.52 66.82 15.67 60.15 20.52 62.7 12.68 56.03 7.84 64.27 7.84 66.82 0"/><polygon class="cls-1" points="94.84 0 97.38 7.84 105.62 7.84 98.96 12.68 101.5 20.52 94.84 15.67 88.17 20.52 90.72 12.68 84.05 7.84 92.29 7.84 94.84 0"/><polygon class="cls-1" points="122.85 0 125.4 7.84 133.64 7.84 126.97 12.68 129.52 20.52 122.85 15.67 116.19 20.52 118.73 12.68 112.07 7.84 120.31 7.84 122.85 0"/></g></g></g></svg>