<svg xmlns="http://www.w3.org/2000/svg" viewBox="0 0 376.64 66.68"><defs><style>.cls-1{fill:#fff;}</style></defs><title>tempur-cloud-collection</title><g id="Layer_2" data-name="Layer 2"><g id="Layer_1-2" data-name="Layer 1"><g id="Cloud_logo" data-name="Cloud logo"><path class="cls-1" d="M51.66,66.68a6.16,6.16,0,0,1-4.42-1.8c-1.63-1.63-1.63-3.33-1.63-7s0-5.37,1.63-7a6.16,6.16,0,0,1,4.42-1.8,5.83,5.83,0,0,1,6,5.15H55.76a4.08,4.08,0,0,0-4.1-3.5,4.16,4.16,0,0,0-3,1.21c-1.09,1.12-1.21,2.31-1.21,5.93s.12,4.81,1.21,5.93a4.23,4.23,0,0,0,7.14-2.28h1.85A5.83,5.83,0,0,1,51.66,66.68Z"/><path class="cls-1" d="M72,64.88a6.33,6.33,0,0,1-8.84,0c-1.63-1.63-1.63-3.33-1.63-7s0-5.37,1.63-7a6.33,6.33,0,0,1,8.84,0c1.63,1.63,1.63,3.33,1.63,7S73.63,63.26,72,64.88ZM70.57,52a4.22,4.22,0,0,0-6,0c-1.09,1.12-1.21,2.28-1.21,5.9s.12,4.79,1.21,5.9a4.22,4.22,0,0,0,6,0c1.09-1.12,1.21-2.28,1.21-5.9S71.66,53.1,70.57,52Z"/><path class="cls-1" d="M78.71,66.54V49.24h1.84V64.88h8.84v1.65Z"/><path class="cls-1" d="M93.35,66.54V49.24H95.2V64.88H104v1.65Z"/><path class="cls-1" d="M108,66.54V49.24H118.7v1.65h-8.88V57h7.57v1.65h-7.57v6.24h8.88v1.65Z"/><path class="cls-1" d="M128.66,66.68a6.16,6.16,0,0,1-4.42-1.8c-1.63-1.63-1.63-3.33-1.63-7s0-5.37,1.63-7a6.16,6.16,0,0,1,4.42-1.8,5.83,5.83,0,0,1,6,5.15h-1.89a4.08,4.08,0,0,0-4.1-3.5,4.16,4.16,0,0,0-3,1.21c-1.09,1.12-1.21,2.31-1.21,5.93s.12,4.81,1.21,5.93a4.23,4.23,0,0,0,7.14-2.28h1.85A5.83,5.83,0,0,1,128.66,66.68Z"/><path class="cls-1" d="M144.05,50.89V66.54h-1.84V50.89h-5V49.24h11.85v1.65Z"/><path class="cls-1" d="M153,66.54V49.24h1.84v17.3Z"/><path class="cls-1" d="M170.4,64.88a6.33,6.33,0,0,1-8.84,0c-1.63-1.63-1.63-3.33-1.63-7s0-5.37,1.63-7a6.33,6.33,0,0,1,8.84,0c1.63,1.63,1.63,3.33,1.63,7S172,63.26,170.4,64.88ZM169,52a4.22,4.22,0,0,0-6,0c-1.09,1.12-1.21,2.28-1.21,5.9s.12,4.79,1.21,5.9a4.22,4.22,0,0,0,6,0c1.09-1.12,1.21-2.28,1.21-5.9S170.06,53.1,169,52Z"/><path class="cls-1" d="M188.13,66.54,179,52.67V66.54h-1.84V49.24h1.75L188,63.06V49.24h1.85v17.3Z"/><path class="cls-1" d="M58.18,6.68v30H54.64v-30H45V3.52H67.77V6.68Z"/><path class="cls-1" d="M74,36.69V3.52H94.54V6.68h-17V18.38H92v3.17H77.5v12h17v3.17Z"/><path class="cls-1" d="M126.76,36.69V11.48l-9.08,20h-3l-9.22-20v25.2H101.9V3.52h3.54L116.24,27,126.76,3.52h3.54V36.69Z"/><path class="cls-1" d="M152.23,23h-8.8V36.69h-3.54V3.52h12.34c6.05,0,10.25,3.77,10.25,9.74S158.29,23,152.23,23Zm-.33-16.35h-8.48V19.87h8.48c4.14,0,7-2.24,7-6.62S156.05,6.68,151.91,6.68Z"/><path class="cls-1" d="M180.31,37c-6.71,0-11.55-4.61-11.55-11.23V3.52h3.54V25.46c0,5,3.17,8.34,8,8.34s8.06-3.31,8.06-8.34V3.52h3.54V25.74C191.91,32.35,187,37,180.31,37Z"/><path class="cls-1" d="M220.08,36.69,212.53,22h-8V36.69H201V3.52h12.71c5.78,0,9.83,3.49,9.83,9.22a8.6,8.6,0,0,1-7.22,8.9l7.87,15Zm-6.66-30h-8.85V18.84h8.85c3.87,0,6.61-2,6.61-6.06S217.28,6.68,213.42,6.68Z"/><path class="cls-1" d="M228.1,22.64V19.42h13.15v3.22Z"/><path class="cls-1" d="M259.53,37a12.17,12.17,0,0,1-8.73-3.55c-3.21-3.22-3.21-6.58-3.21-13.83s0-10.61,3.21-13.83a12.18,12.18,0,0,1,8.73-3.55c6.14,0,10.7,3.75,11.85,10.18h-3.74c-.91-4.18-3.84-6.92-8.11-6.92a8.22,8.22,0,0,0-5.9,2.4c-2.16,2.21-2.4,4.56-2.4,11.72s.24,9.51,2.4,11.72a8.23,8.23,0,0,0,5.9,2.4c4.27,0,7.29-2.74,8.21-6.91h3.65C270.28,33.25,265.62,37,259.53,37Z"/><path class="cls-1" d="M284.72,36.7c-4.13,0-6-2.69-6-6.29V2.51h3.46V30.27c0,2.3.77,3.46,3.17,3.46h1.87v3Z"/><path class="cls-1" d="M307.8,34.3a9.86,9.86,0,0,1-13.53,0c-2.4-2.45-2.88-5.76-2.88-9.41s.48-7,2.88-9.41a9.86,9.86,0,0,1,13.53,0c2.4,2.45,2.88,5.76,2.88,9.41S310.2,31.85,307.8,34.3Zm-2.45-16.71A6.05,6.05,0,0,0,301,15.86a5.94,5.94,0,0,0-4.27,1.73c-1.73,1.73-1.92,4.66-1.92,7.3s.19,5.57,1.92,7.3A5.94,5.94,0,0,0,301,33.92a6.05,6.05,0,0,0,4.32-1.73c1.73-1.73,1.87-4.66,1.87-7.3S307.09,19.32,305.36,17.59Z"/><path class="cls-1" d="M333,36.7V34.06A8.65,8.65,0,0,1,326.33,37a8.39,8.39,0,0,1-6.09-2.21,8.82,8.82,0,0,1-2.4-6.63V13.08h3.46V27.63c0,4.18,2.21,6.29,5.76,6.29s5.9-2.16,5.9-6.29V13.08h3.46V36.7Z"/><path class="cls-1" d="M359.15,36.7V33.87A7.65,7.65,0,0,1,352.43,37a8.22,8.22,0,0,1-5.76-2.06c-2.4-2.4-2.88-6.34-2.88-10s.48-7.64,2.88-10a8.22,8.22,0,0,1,5.76-2.07,7.59,7.59,0,0,1,6.67,3V2.51h3.46V36.7Zm-6-20.84c-5.13,0-6,4.42-6,9s.82,9,6,9,5.9-4.42,5.9-9S358.34,15.86,353.2,15.86Z"/><path class="cls-1" d="M372.15,19a4.49,4.49,0,1,1,4.49-4.49A4.49,4.49,0,0,1,372.15,19Zm0-8.32a3.83,3.83,0,1,0,3.78,3.83A3.81,3.81,0,0,0,372.15,10.7ZM373.24,17l-1.13-2h-.74v2h-.68V12.06h1.67a1.5,1.5,0,0,1,1.55,1.48,1.36,1.36,0,0,1-1.05,1.35L374,17Zm-1-4.32h-.92V14.4h.92a.86.86,0,0,0,.93-.86A.87.87,0,0,0,372.28,12.67Z"/><path class="cls-1" d="M227.65,22.64V19.42H240.8v3.22Z"/><path class="cls-1" d="M15.91,8.8a4.4,4.4,0,1,0-4.4-4.4,4.4,4.4,0,0,0,4.4,4.4"/><path class="cls-1" d="M15.91,34.4a4.4,4.4,0,1,0-4.4-4.4,4.4,4.4,0,0,0,4.4,4.4"/><path class="cls-1" d="M27.54,28.49a4.4,4.4,0,1,0-4.4-4.4,4.4,4.4,0,0,0,4.4,4.4"/><path class="cls-1" d="M4.4,28.49A4.4,4.4,0,1,0,0,24.09a4.4,4.4,0,0,0,4.4,4.4"/><path class="cls-1" d="M27.54,15.32a4.4,4.4,0,1,0-4.4-4.4,4.4,4.4,0,0,0,4.4,4.4"/><path class="cls-1" d="M4.4,15.32A4.4,4.4,0,1,0,0,10.93a4.4,4.4,0,0,0,4.4,4.4"/></g></g></g></svg>