<svg xmlns="http://www.w3.org/2000/svg" viewBox="0 0 190.32 37.12"><defs><style>.cls-1{fill:#fff;}</style></defs><title>tempur-flex-logotype</title><g id="Layer_2" data-name="Layer 2"><g id="header"><path class="cls-1" d="M28.25,37.12a3.43,3.43,0,0,1-2.46-1c-.91-.91-.91-1.85-.91-3.9s0-3,.91-3.9a3.42,3.42,0,0,1,2.46-1,3.25,3.25,0,0,1,3.34,2.87H30.53a2.27,2.27,0,0,0-2.29-1.95,2.32,2.32,0,0,0-1.66.68c-.61.62-.68,1.29-.68,3.3s.07,2.68.68,3.3a2.36,2.36,0,0,0,4-1.27h1A3.25,3.25,0,0,1,28.25,37.12Z"/><path class="cls-1" d="M39.59,36.12a3.52,3.52,0,0,1-4.92,0c-.91-.91-.91-1.85-.91-3.9s0-3,.91-3.9a3.52,3.52,0,0,1,4.92,0c.91.91.91,1.85.91,3.9S40.5,35.22,39.59,36.12Zm-.8-7.19a2.35,2.35,0,0,0-3.33,0c-.61.62-.68,1.27-.68,3.29s.07,2.67.68,3.29a2.35,2.35,0,0,0,3.33,0c.61-.62.68-1.27.68-3.29S39.4,29.56,38.79,28.94Z"/><path class="cls-1" d="M43.32,37V27.41h1v8.72h4.92V37Z"/><path class="cls-1" d="M51.46,37V27.41h1v8.72h4.92V37Z"/><path class="cls-1" d="M59.6,37V27.41h6v.92H60.63v3.4h4.22v.92H60.63v3.48h4.95V37Z"/><path class="cls-1" d="M71.12,37.12a3.43,3.43,0,0,1-2.46-1c-.91-.91-.91-1.85-.91-3.9s0-3,.91-3.9a3.42,3.42,0,0,1,2.46-1,3.25,3.25,0,0,1,3.34,2.87H73.4a2.27,2.27,0,0,0-2.29-1.95,2.32,2.32,0,0,0-1.66.68c-.61.62-.68,1.29-.68,3.3s.07,2.68.68,3.3a2.36,2.36,0,0,0,4-1.27h1A3.25,3.25,0,0,1,71.12,37.12Z"/><path class="cls-1" d="M79.69,28.33V37h-1V28.33H75.88v-.92h6.6v.92Z"/><path class="cls-1" d="M84.68,37V27.41h1V37Z"/><path class="cls-1" d="M94.36,36.12a3.52,3.52,0,0,1-4.92,0c-.91-.91-.91-1.85-.91-3.9s0-3,.91-3.9a3.52,3.52,0,0,1,4.92,0c.91.91.91,1.85.91,3.9S95.26,35.22,94.36,36.12Zm-.8-7.19a2.35,2.35,0,0,0-3.33,0c-.61.62-.68,1.27-.68,3.29s.07,2.67.68,3.29a2.35,2.35,0,0,0,3.33,0c.61-.62.68-1.27.68-3.29S94.17,29.56,93.56,28.94Z"/><path class="cls-1" d="M104.23,37l-5.11-7.73V37h-1V27.41h1l5.11,7.7v-7.7h1V37Z"/><path class="cls-1" d="M31.87,3.72V20.42h-2V3.72H24.56V2H37.21V3.72Z"/><path class="cls-1" d="M40.66,20.42V2H52.12V3.72H42.63v6.51h8.09V12H42.63v6.67h9.49v1.76Z"/><path class="cls-1" d="M70.06,20.42v-14L65,17.52H63.32L58.18,6.39v14h-2V2h2l6,13.1L70.06,2h2V20.42Z"/><path class="cls-1" d="M84.24,12.82h-4.9v7.6h-2V2h6.87c3.37,0,5.7,2.1,5.7,5.42S87.61,12.82,84.24,12.82Zm-.18-9.1H79.34v7.34h4.72c2.31,0,3.92-1.25,3.92-3.68S86.36,3.72,84.06,3.72Z"/><path class="cls-1" d="M99.87,20.58a6.09,6.09,0,0,1-6.43-6.25V2h2V14.17a4.48,4.48,0,1,0,8.94,0V2h2V14.33A6.12,6.12,0,0,1,99.87,20.58Z"/><path class="cls-1" d="M122,20.42l-4.2-8.2h-4.43v8.2h-2V2h7.08C121.7,2,124,3.9,124,7.09a4.79,4.79,0,0,1-4,5l4.38,8.38ZM118.3,3.72h-4.93v6.77h4.93c2.15,0,3.68-1.12,3.68-3.37S120.45,3.72,118.3,3.72Z"/><path class="cls-1" d="M126.48,12.6V10.81h7.32V12.6Z"/><path class="cls-1" d="M140.08,3.22v7h8.34V12h-8.34v8.39h-2V1.4h11.81V3.22Z"/><path class="cls-1" d="M156.48,20.43c-2.3,0-3.34-1.5-3.34-3.5V1.4h1.92V16.85c0,1.28.43,1.92,1.76,1.92h1v1.66Z"/><path class="cls-1" d="M162.09,14.36c0,2.89,1.36,4.54,3.87,4.54a4.32,4.32,0,0,0,3.45-1.5l1.31,1.15a6,6,0,0,1-4.81,2c-3.47,0-5.74-2.08-5.74-6.74,0-4.25,2.06-6.74,5.4-6.74s5.4,2.46,5.4,6.36v.88Zm6.55-3.64a3.38,3.38,0,0,0-6.15,0,5.52,5.52,0,0,0-.4,2.19H169A5.54,5.54,0,0,0,168.64,10.73Z"/><path class="cls-1" d="M181.7,20.43l-3.15-5.11-3.21,5.11H173l4.46-6.71-4.28-6.44h2.33l3,4.87,3-4.87h2.32l-4.27,6.44L184,20.43Z"/><path class="cls-1" d="M187.81,10.59a2.5,2.5,0,1,1,2.5-2.5A2.5,2.5,0,0,1,187.81,10.59Zm0-4.64a2.14,2.14,0,1,0,2.11,2.14A2.12,2.12,0,0,0,187.81,6Zm.61,3.5-.63-1.12h-.42V9.46H187V6.71h.93a.84.84,0,0,1,.86.82.76.76,0,0,1-.59.75l.66,1.17ZM187.89,7h-.51V8h.51a.48.48,0,0,0,.52-.48A.49.49,0,0,0,187.89,7Z"/><path class="cls-1" d="M126.74,12.6V10.81h7.32V12.6Z"/><path class="cls-1" d="M8.86,4.9A2.45,2.45,0,1,0,6.41,2.45,2.45,2.45,0,0,0,8.86,4.9"/><path class="cls-1" d="M8.86,19.15A2.45,2.45,0,1,0,6.41,16.7a2.45,2.45,0,0,0,2.45,2.45"/><path class="cls-1" d="M15.33,15.86a2.45,2.45,0,1,0-2.45-2.45,2.45,2.45,0,0,0,2.45,2.45"/><path class="cls-1" d="M2.45,15.86A2.45,2.45,0,1,0,0,13.41a2.45,2.45,0,0,0,2.45,2.45"/><path class="cls-1" d="M15.33,8.53a2.45,2.45,0,1,0-2.45-2.45,2.45,2.45,0,0,0,2.45,2.45"/><path class="cls-1" d="M2.45,8.53A2.45,2.45,0,1,0,0,6.08,2.45,2.45,0,0,0,2.45,8.53"/></g></g></svg>