<svg xmlns="http://www.w3.org/2000/svg" viewBox="0 0 209.69 37.12"><defs><style>.cls-1{fill:#fff;}</style></defs><title>tempur-cloud-logotype</title><g id="Layer_2" data-name="Layer 2"><g id="header"><path class="cls-1" d="M28.76,37.12a3.43,3.43,0,0,1-2.46-1c-.91-.91-.91-1.85-.91-3.9s0-3,.91-3.9a3.42,3.42,0,0,1,2.46-1,3.25,3.25,0,0,1,3.34,2.87H31a2.27,2.27,0,0,0-2.29-1.95,2.32,2.32,0,0,0-1.66.68c-.61.62-.68,1.29-.68,3.3s.07,2.68.68,3.3a2.36,2.36,0,0,0,4-1.27h1A3.25,3.25,0,0,1,28.76,37.12Z"/><path class="cls-1" d="M40.09,36.12a3.52,3.52,0,0,1-4.92,0c-.91-.91-.91-1.85-.91-3.9s0-3,.91-3.9a3.52,3.52,0,0,1,4.92,0c.91.91.91,1.85.91,3.9S41,35.22,40.09,36.12Zm-.8-7.19a2.35,2.35,0,0,0-3.33,0c-.61.62-.68,1.27-.68,3.29s.07,2.67.68,3.29a2.35,2.35,0,0,0,3.33,0c.61-.62.68-1.27.68-3.29S39.9,29.56,39.29,28.94Z"/><path class="cls-1" d="M43.82,37V27.41h1v8.72h4.92V37Z"/><path class="cls-1" d="M52,37V27.41h1v8.72h4.92V37Z"/><path class="cls-1" d="M60.11,37V27.41h6v.92H61.14v3.4h4.22v.92H61.14v3.48h4.95V37Z"/><path class="cls-1" d="M71.63,37.12a3.43,3.43,0,0,1-2.46-1c-.91-.91-.91-1.85-.91-3.9s0-3,.91-3.9a3.42,3.42,0,0,1,2.46-1A3.25,3.25,0,0,1,75,30.19H73.92a2.27,2.27,0,0,0-2.29-1.95,2.32,2.32,0,0,0-1.66.68c-.61.62-.68,1.29-.68,3.3s.07,2.68.68,3.3a2.36,2.36,0,0,0,4-1.27h1A3.25,3.25,0,0,1,71.63,37.12Z"/><path class="cls-1" d="M80.2,28.33V37h-1V28.33H76.39v-.92H83v.92Z"/><path class="cls-1" d="M85.19,37V27.41h1V37Z"/><path class="cls-1" d="M94.87,36.12a3.52,3.52,0,0,1-4.92,0c-.91-.91-.91-1.85-.91-3.9s0-3,.91-3.9a3.52,3.52,0,0,1,4.92,0c.91.91.91,1.85.91,3.9S95.78,35.22,94.87,36.12Zm-.8-7.19a2.35,2.35,0,0,0-3.33,0c-.61.62-.68,1.27-.68,3.29s.07,2.67.68,3.29a2.35,2.35,0,0,0,3.33,0c.61-.62.68-1.27.68-3.29S94.68,29.56,94.07,28.94Z"/><path class="cls-1" d="M104.74,37l-5.11-7.73V37h-1V27.41h1l5.11,7.7v-7.7h1V37Z"/><path class="cls-1" d="M32.39,3.72V20.42h-2V3.72H25.08V2H37.73V3.72Z"/><path class="cls-1" d="M41.18,20.42V2H52.63V3.72H43.15v6.51h8.09V12H43.15v6.67h9.49v1.76Z"/><path class="cls-1" d="M70.57,20.42v-14L65.52,17.52H63.83L58.7,6.39v14h-2V2h2l6,13.1L70.57,2h2V20.42Z"/><path class="cls-1" d="M84.75,12.82h-4.9v7.6h-2V2h6.87c3.37,0,5.7,2.1,5.7,5.42S88.12,12.82,84.75,12.82Zm-.18-9.1H79.85v7.34h4.72c2.31,0,3.92-1.25,3.92-3.68S86.88,3.72,84.57,3.72Z"/><path class="cls-1" d="M100.38,20.58A6.09,6.09,0,0,1,94,14.33V2h2V14.17a4.48,4.48,0,1,0,8.94,0V2h2V14.33A6.12,6.12,0,0,1,100.38,20.58Z"/><path class="cls-1" d="M122.52,20.42l-4.2-8.2h-4.43v8.2h-2V2H119c3.21,0,5.47,1.95,5.47,5.14a4.79,4.79,0,0,1-4,5l4.38,8.38ZM118.82,3.72h-4.93v6.77h4.93c2.15,0,3.68-1.12,3.68-3.37S121,3.72,118.82,3.72Z"/><path class="cls-1" d="M127,12.6V10.81h7.32V12.6Z"/><path class="cls-1" d="M144.49,20.59a6.78,6.78,0,0,1-4.86-2c-1.79-1.79-1.79-3.66-1.79-7.7s0-5.91,1.79-7.7a6.78,6.78,0,0,1,4.86-2,6.42,6.42,0,0,1,6.6,5.67H149a4.49,4.49,0,0,0-4.52-3.85,4.58,4.58,0,0,0-3.29,1.34c-1.2,1.23-1.34,2.54-1.34,6.52s.13,5.29,1.34,6.52a4.66,4.66,0,0,0,7.85-2.51h2A6.42,6.42,0,0,1,144.49,20.59Z"/><path class="cls-1" d="M158.51,20.43c-2.3,0-3.34-1.5-3.34-3.5V1.4h1.92V16.85c0,1.28.43,1.92,1.76,1.92h1v1.66Z"/><path class="cls-1" d="M171.37,19.1a5.49,5.49,0,0,1-7.53,0c-1.34-1.36-1.6-3.21-1.6-5.24s.27-3.88,1.6-5.24a5.49,5.49,0,0,1,7.53,0c1.34,1.36,1.6,3.21,1.6,5.24S172.7,17.73,171.37,19.1ZM170,9.79a3.37,3.37,0,0,0-2.41-1,3.31,3.31,0,0,0-2.38,1c-1,1-1.07,2.59-1.07,4.06s.11,3.1,1.07,4.06a3.31,3.31,0,0,0,2.38,1,3.37,3.37,0,0,0,2.41-1c1-1,1-2.59,1-4.06S171,10.75,170,9.79Z"/><path class="cls-1" d="M185.39,20.43V19a4.82,4.82,0,0,1-3.71,1.63,4.67,4.67,0,0,1-3.39-1.23,4.91,4.91,0,0,1-1.34-3.69V7.28h1.92v8.1c0,2.33,1.23,3.5,3.21,3.5s3.29-1.2,3.29-3.5V7.28h1.92V20.43Z"/><path class="cls-1" d="M200,20.43V18.86a4.26,4.26,0,0,1-3.74,1.74A4.58,4.58,0,0,1,193,19.44c-1.34-1.34-1.6-3.53-1.6-5.59s.27-4.25,1.6-5.59a4.58,4.58,0,0,1,3.21-1.15,4.23,4.23,0,0,1,3.71,1.68V1.4h1.92v19Zm-3.31-11.6c-2.86,0-3.31,2.46-3.31,5s.45,5,3.31,5,3.29-2.46,3.29-5S199.5,8.83,196.64,8.83Z"/><path class="cls-1" d="M207.19,10.59a2.5,2.5,0,1,1,2.5-2.5A2.5,2.5,0,0,1,207.19,10.59Zm0-4.64a2.14,2.14,0,1,0,2.11,2.14A2.12,2.12,0,0,0,207.19,6Zm.61,3.5-.63-1.12h-.42V9.46h-.38V6.71h.93a.84.84,0,0,1,.86.82.76.76,0,0,1-.59.75l.66,1.17ZM207.27,7h-.51V8h.51a.48.48,0,0,0,.52-.48A.49.49,0,0,0,207.27,7Z"/><path class="cls-1" d="M126.74,12.6V10.81h7.32V12.6Z"/><path class="cls-1" d="M8.86,4.9A2.45,2.45,0,1,0,6.41,2.45,2.45,2.45,0,0,0,8.86,4.9"/><path class="cls-1" d="M8.86,19.15A2.45,2.45,0,1,0,6.41,16.7a2.45,2.45,0,0,0,2.45,2.45"/><path class="cls-1" d="M15.33,15.86a2.45,2.45,0,1,0-2.45-2.45,2.45,2.45,0,0,0,2.45,2.45"/><path class="cls-1" d="M2.45,15.86A2.45,2.45,0,1,0,0,13.41a2.45,2.45,0,0,0,2.45,2.45"/><path class="cls-1" d="M15.33,8.53a2.45,2.45,0,1,0-2.45-2.45,2.45,2.45,0,0,0,2.45,2.45"/><path class="cls-1" d="M2.45,8.53A2.45,2.45,0,1,0,0,6.08,2.45,2.45,0,0,0,2.45,8.53"/></g></g></svg>