<svg xmlns="http://www.w3.org/2000/svg" viewBox="0 0 341.83 66.68"><defs><style>.cls-1{fill:#fff;}</style></defs><title>tempur-flex-collection</title><g id="Layer_2" data-name="Layer 2"><g id="Layer_1-2" data-name="Layer 1"><g id="Flex_logo" data-name="Flex logo"><path class="cls-1" d="M50.73,66.68a6.16,6.16,0,0,1-4.42-1.8c-1.63-1.63-1.63-3.33-1.63-7s0-5.37,1.63-7a6.16,6.16,0,0,1,4.42-1.8,5.83,5.83,0,0,1,6,5.15H54.84a4.08,4.08,0,0,0-4.1-3.5,4.16,4.16,0,0,0-3,1.21c-1.09,1.12-1.21,2.31-1.21,5.93s.12,4.81,1.21,5.93a4.23,4.23,0,0,0,7.14-2.28h1.85A5.83,5.83,0,0,1,50.73,66.68Z"/><path class="cls-1" d="M71.1,64.89a6.33,6.33,0,0,1-8.84,0c-1.63-1.63-1.63-3.33-1.63-7s0-5.37,1.63-7a6.33,6.33,0,0,1,8.84,0c1.63,1.63,1.63,3.33,1.63,7S72.73,63.26,71.1,64.89ZM69.67,52a4.22,4.22,0,0,0-6,0c-1.09,1.12-1.21,2.28-1.21,5.9s.12,4.79,1.21,5.9a4.22,4.22,0,0,0,6,0c1.09-1.12,1.21-2.28,1.21-5.9S70.76,53.1,69.67,52Z"/><path class="cls-1" d="M77.81,66.54V49.24h1.84V64.89h8.84v1.65Z"/><path class="cls-1" d="M92.43,66.54V49.24h1.84V64.89h8.84v1.65Z"/><path class="cls-1" d="M107,66.54V49.24h10.73v1.65h-8.88V57h7.57v1.65h-7.57v6.24h8.88v1.65Z"/><path class="cls-1" d="M127.73,66.68a6.16,6.16,0,0,1-4.42-1.8c-1.63-1.63-1.63-3.33-1.63-7s0-5.37,1.63-7a6.16,6.16,0,0,1,4.42-1.8,5.83,5.83,0,0,1,6,5.15h-1.89a4.08,4.08,0,0,0-4.1-3.5,4.16,4.16,0,0,0-3,1.21c-1.09,1.12-1.21,2.31-1.21,5.93s.12,4.81,1.21,5.93a4.23,4.23,0,0,0,7.14-2.28h1.85A5.83,5.83,0,0,1,127.73,66.68Z"/><path class="cls-1" d="M143.13,50.89V66.54h-1.84V50.89h-5V49.24h11.85v1.65Z"/><path class="cls-1" d="M152.09,66.54V49.24h1.84v17.3Z"/><path class="cls-1" d="M169.48,64.89a6.33,6.33,0,0,1-8.84,0c-1.63-1.63-1.63-3.33-1.63-7s0-5.37,1.63-7a6.33,6.33,0,0,1,8.84,0c1.63,1.63,1.63,3.33,1.63,7S171.1,63.26,169.48,64.89ZM168,52a4.22,4.22,0,0,0-6,0c-1.09,1.12-1.21,2.28-1.21,5.9s.12,4.79,1.21,5.9a4.22,4.22,0,0,0,6,0c1.09-1.12,1.21-2.28,1.21-5.9S169.14,53.1,168,52Z"/><path class="cls-1" d="M187.2,66.54,178,52.67V66.54h-1.84V49.24h1.75l9.18,13.82V49.24H189v17.3Z"/><path class="cls-1" d="M57.25,6.68v30H53.71v-30H44.12V3.52H66.84V6.68Z"/><path class="cls-1" d="M73,36.69V3.52H93.62V6.68h-17V18.38H91.1v3.17H76.57v12h17v3.17Z"/><path class="cls-1" d="M125.84,36.69V11.48l-9.08,20h-3l-9.22-20v25.2H101V3.52h3.54L115.32,27,125.84,3.52h3.54V36.69Z"/><path class="cls-1" d="M151.31,23h-8.8V36.69H139V3.52h12.34c6.05,0,10.25,3.77,10.25,9.74S157.36,23,151.31,23ZM151,6.68h-8.48V19.87H151c4.14,0,7-2.24,7-6.62S155.13,6.68,151,6.68Z"/><path class="cls-1" d="M179.38,37c-6.71,0-11.55-4.61-11.55-11.23V3.52h3.54V25.46c0,5,3.17,8.34,8,8.34s8.06-3.31,8.06-8.34V3.52H191V25.74C191,32.35,186.09,37,179.38,37Z"/><path class="cls-1" d="M219.15,36.69,211.61,22h-8V36.69H200.1V3.52h12.71c5.77,0,9.83,3.49,9.83,9.22a8.6,8.6,0,0,1-7.22,8.9l7.87,15Zm-6.66-30h-8.85V18.84h8.85c3.87,0,6.61-2,6.61-6.06S216.36,6.68,212.49,6.68Z"/><path class="cls-1" d="M227.17,22.64V19.42h13.15v3.22Z"/><path class="cls-1" d="M251.6,5.78V18.36h15v3.27h-15V36.7H248V2.51h21.21V5.78Z"/><path class="cls-1" d="M281.06,36.7c-4.13,0-6-2.69-6-6.29V2.51h3.46V30.27c0,2.3.77,3.46,3.17,3.46h1.87v3Z"/><path class="cls-1" d="M291.14,25.8c0,5.19,2.45,8.16,7,8.16a7.76,7.76,0,0,0,6.19-2.69l2.35,2.06A10.81,10.81,0,0,1,298,37c-6.24,0-10.32-3.75-10.32-12.1,0-7.64,3.7-12.1,9.69-12.1s9.69,4.42,9.69,11.43V25.8Zm11.76-6.53a6.06,6.06,0,0,0-11,0,10,10,0,0,0-.72,3.94h12.48A10,10,0,0,0,302.9,19.27Z"/><path class="cls-1" d="M326.37,36.7l-5.66-9.17-5.76,9.17h-4.17l8-12.05-7.68-11.57h4.17l5.42,8.74L326,13.08h4.18l-7.68,11.57,8,12.05Z"/><path class="cls-1" d="M337.34,19a4.49,4.49,0,1,1,4.49-4.49A4.49,4.49,0,0,1,337.34,19Zm0-8.32a3.83,3.83,0,1,0,3.78,3.83A3.81,3.81,0,0,0,337.34,10.7ZM338.43,17l-1.13-2h-.74v2h-.68V12.06h1.67a1.5,1.5,0,0,1,1.55,1.48A1.36,1.36,0,0,1,338,14.89l1.18,2.1Zm-1-4.32h-.92V14.4h.92a.86.86,0,0,0,.93-.86A.87.87,0,0,0,337.48,12.67Z"/><path class="cls-1" d="M227.65,22.64V19.42H240.8v3.22Z"/><path class="cls-1" d="M15.91,8.8a4.4,4.4,0,1,0-4.4-4.4,4.4,4.4,0,0,0,4.4,4.4"/><path class="cls-1" d="M15.91,34.4a4.4,4.4,0,1,0-4.4-4.4,4.4,4.4,0,0,0,4.4,4.4"/><path class="cls-1" d="M27.54,28.49a4.4,4.4,0,1,0-4.4-4.4,4.4,4.4,0,0,0,4.4,4.4"/><path class="cls-1" d="M4.4,28.49A4.4,4.4,0,1,0,0,24.09a4.4,4.4,0,0,0,4.4,4.4"/><path class="cls-1" d="M27.54,15.32a4.4,4.4,0,1,0-4.4-4.4,4.4,4.4,0,0,0,4.4,4.4"/><path class="cls-1" d="M4.4,15.32A4.4,4.4,0,1,0,0,10.93a4.4,4.4,0,0,0,4.4,4.4"/></g></g></g></svg>