<svg xmlns="http://www.w3.org/2000/svg" viewBox="0 0 431.92 66.68"><defs><style>.cls-1{fill:#fff;}</style></defs><title>tempur-contour-collection</title><g id="Layer_2" data-name="Layer 2"><g id="Layer_1-2" data-name="Layer 1"><g id="Contour_logo" data-name="Contour logo"><path class="cls-1" d="M51.21,66.68a6.16,6.16,0,0,1-4.42-1.8c-1.63-1.63-1.63-3.33-1.63-7s0-5.37,1.63-7a6.16,6.16,0,0,1,4.42-1.8,5.83,5.83,0,0,1,6,5.15H55.31a4.08,4.08,0,0,0-4.1-3.5,4.16,4.16,0,0,0-3,1.21C47.13,53.08,47,54.27,47,57.89s.12,4.81,1.21,5.93a4.23,4.23,0,0,0,7.14-2.28h1.85A5.83,5.83,0,0,1,51.21,66.68Z"/><path class="cls-1" d="M71.56,64.88a6.33,6.33,0,0,1-8.84,0c-1.63-1.63-1.63-3.33-1.63-7s0-5.37,1.63-7a6.33,6.33,0,0,1,8.84,0c1.63,1.63,1.63,3.33,1.63,7S73.18,63.26,71.56,64.88ZM70.13,52a4.22,4.22,0,0,0-6,0c-1.09,1.12-1.21,2.28-1.21,5.9s.12,4.79,1.21,5.9a4.22,4.22,0,0,0,6,0c1.09-1.12,1.21-2.28,1.21-5.9S71.22,53.1,70.13,52Z"/><path class="cls-1" d="M78.26,66.54V49.24h1.84V64.88h8.84v1.65Z"/><path class="cls-1" d="M92.91,66.54V49.24h1.84V64.88h8.84v1.65Z"/><path class="cls-1" d="M107.53,66.54V49.24h10.73v1.65h-8.88V57h7.57v1.65h-7.57v6.24h8.88v1.65Z"/><path class="cls-1" d="M128.21,66.68a6.16,6.16,0,0,1-4.42-1.8c-1.63-1.63-1.63-3.33-1.63-7s0-5.37,1.63-7a6.16,6.16,0,0,1,4.42-1.8,5.83,5.83,0,0,1,6,5.15h-1.89a4.08,4.08,0,0,0-4.1-3.5,4.16,4.16,0,0,0-3,1.21c-1.09,1.12-1.21,2.31-1.21,5.93s.12,4.81,1.21,5.93a4.23,4.23,0,0,0,7.14-2.28h1.85A5.83,5.83,0,0,1,128.21,66.68Z"/><path class="cls-1" d="M143.61,50.89V66.54h-1.84V50.89h-5V49.24h11.85v1.65Z"/><path class="cls-1" d="M152.57,66.54V49.24h1.84v17.3Z"/><path class="cls-1" d="M170,64.88a6.33,6.33,0,0,1-8.84,0c-1.63-1.63-1.63-3.33-1.63-7s0-5.37,1.63-7a6.33,6.33,0,0,1,8.84,0c1.63,1.63,1.63,3.33,1.63,7S171.58,63.26,170,64.88ZM168.52,52a4.22,4.22,0,0,0-6,0c-1.09,1.12-1.21,2.28-1.21,5.9s.12,4.79,1.21,5.9a4.22,4.22,0,0,0,6,0c1.09-1.12,1.21-2.28,1.21-5.9S169.62,53.1,168.52,52Z"/><path class="cls-1" d="M187.68,66.54l-9.18-13.87V66.54h-1.84V49.24h1.75l9.18,13.82V49.24h1.85v17.3Z"/><path class="cls-1" d="M57.73,6.68v30H54.19v-30H44.6V3.52H67.32V6.68Z"/><path class="cls-1" d="M73.51,36.69V3.52H94.1V6.68h-17V18.38H91.58v3.17H77.05v12h17v3.17Z"/><path class="cls-1" d="M126.32,36.69V11.48l-9.08,20h-3l-9.22-20v25.2h-3.54V3.52H105L115.8,27,126.32,3.52h3.54V36.69Z"/><path class="cls-1" d="M151.79,23H143V36.69h-3.54V3.52h12.34c6.05,0,10.25,3.77,10.25,9.74S157.84,23,151.79,23Zm-.33-16.35H143V19.87h8.48c4.14,0,7-2.24,7-6.62S155.61,6.68,151.46,6.68Z"/><path class="cls-1" d="M179.86,37c-6.71,0-11.55-4.61-11.55-11.23V3.52h3.54V25.46c0,5,3.17,8.34,8,8.34s8.06-3.31,8.06-8.34V3.52h3.54V25.74C191.46,32.35,186.57,37,179.86,37Z"/><path class="cls-1" d="M219.63,36.69,212.09,22h-8V36.69h-3.54V3.52H213.3c5.78,0,9.83,3.49,9.83,9.22a8.6,8.6,0,0,1-7.22,8.9l7.87,15ZM213,6.68h-8.85V18.84H213c3.87,0,6.61-2,6.61-6.06S216.84,6.68,213,6.68Z"/><path class="cls-1" d="M227.65,22.64V19.42H240.8v3.22Z"/><path class="cls-1" d="M259.09,37a12.17,12.17,0,0,1-8.73-3.55c-3.21-3.22-3.21-6.58-3.21-13.83s0-10.61,3.21-13.83a12.18,12.18,0,0,1,8.73-3.55c6.14,0,10.7,3.75,11.85,10.18h-3.74c-.91-4.18-3.84-6.92-8.11-6.92a8.22,8.22,0,0,0-5.9,2.4c-2.16,2.21-2.4,4.56-2.4,11.72s.24,9.51,2.4,11.72a8.23,8.23,0,0,0,5.9,2.4c4.27,0,7.29-2.74,8.21-6.91h3.65C269.83,33.25,265.18,37,259.09,37Z"/><path class="cls-1" d="M293.54,34.3a9.86,9.86,0,0,1-13.53,0c-2.4-2.45-2.88-5.76-2.88-9.41s.48-7,2.88-9.41a9.86,9.86,0,0,1,13.53,0c2.4,2.45,2.88,5.76,2.88,9.41S295.94,31.85,293.54,34.3Zm-2.45-16.71a6.05,6.05,0,0,0-4.32-1.73,5.94,5.94,0,0,0-4.27,1.73c-1.73,1.73-1.92,4.66-1.92,7.3s.19,5.57,1.92,7.3a5.94,5.94,0,0,0,4.27,1.73,6.05,6.05,0,0,0,4.32-1.73c1.73-1.73,1.87-4.66,1.87-7.3S292.82,19.32,291.09,17.59Z"/><path class="cls-1" d="M318.93,36.7V22.15c0-4.18-2.26-6.29-5.81-6.29s-5.85,2.16-5.85,6.29V36.7h-3.46V13.08h3.46v2.59a8.51,8.51,0,0,1,6.62-2.88,8.27,8.27,0,0,1,6,2.21,8.73,8.73,0,0,1,2.45,6.58V36.7Z"/><path class="cls-1" d="M337.4,36.7c-4,0-6-2.83-6-6.34V15.86h-3V13.22h3V5.83h3.46v7.4h5v2.64h-5V30.27c0,2.16,1,3.46,3.22,3.46h1.82v3Z"/><path class="cls-1" d="M361.68,34.3a9.86,9.86,0,0,1-13.53,0c-2.4-2.45-2.88-5.76-2.88-9.41s.48-7,2.88-9.41a9.86,9.86,0,0,1,13.53,0c2.4,2.45,2.88,5.76,2.88,9.41S364.08,31.85,361.68,34.3Zm-2.45-16.71a6.05,6.05,0,0,0-4.32-1.73,5.94,5.94,0,0,0-4.27,1.73c-1.73,1.73-1.92,4.66-1.92,7.3s.19,5.57,1.92,7.3a5.94,5.94,0,0,0,4.27,1.73,6.05,6.05,0,0,0,4.32-1.73c1.73-1.73,1.87-4.66,1.87-7.3S361,19.32,359.24,17.59Z"/><path class="cls-1" d="M386.88,36.7V34.06A8.65,8.65,0,0,1,380.21,37a8.39,8.39,0,0,1-6.09-2.21,8.82,8.82,0,0,1-2.4-6.63V13.08h3.46V27.63c0,4.18,2.21,6.29,5.76,6.29s5.9-2.16,5.9-6.29V13.08h3.46V36.7Z"/><path class="cls-1" d="M412.12,17.59A4.93,4.93,0,0,0,408,15.86c-3.46,0-5.66,2.74-5.66,6.34V36.7h-3.46V13.08h3.46V16A7.93,7.93,0,0,1,409,12.79,7.27,7.27,0,0,1,414.67,15Z"/><path class="cls-1" d="M422.21,13v6.38h-1V13h-2v-.9h5V13Zm8.73,6.38V14.16l-1.74,3.45h-1l-1.74-3.45v5.25h-1V12.13h1l2.22,4.42,2.22-4.42h1v7.28Z"/><path class="cls-1" d="M15.91,8.8a4.4,4.4,0,1,0-4.4-4.4,4.4,4.4,0,0,0,4.4,4.4"/><path class="cls-1" d="M15.91,34.4a4.4,4.4,0,1,0-4.4-4.4,4.4,4.4,0,0,0,4.4,4.4"/><path class="cls-1" d="M27.54,28.49a4.4,4.4,0,1,0-4.4-4.4,4.4,4.4,0,0,0,4.4,4.4"/><path class="cls-1" d="M4.4,28.49A4.4,4.4,0,1,0,0,24.09a4.4,4.4,0,0,0,4.4,4.4"/><path class="cls-1" d="M27.54,15.32a4.4,4.4,0,1,0-4.4-4.4,4.4,4.4,0,0,0,4.4,4.4"/><path class="cls-1" d="M4.4,15.32A4.4,4.4,0,1,0,0,10.93a4.4,4.4,0,0,0,4.4,4.4"/></g></g></g></svg>