<svg xmlns="http://www.w3.org/2000/svg" viewBox="0 0 240.46 37.12"><defs><style>.cls-1{fill:#fff;}</style></defs><title>tempur-contour-logotype</title><g id="Layer_2" data-name="Layer 2"><g id="header"><path class="cls-1" d="M28.51,37.12a3.43,3.43,0,0,1-2.46-1c-.91-.91-.91-1.85-.91-3.9s0-3,.91-3.9a3.42,3.42,0,0,1,2.46-1,3.25,3.25,0,0,1,3.34,2.87H30.8a2.27,2.27,0,0,0-2.29-1.95,2.32,2.32,0,0,0-1.66.68c-.61.62-.68,1.29-.68,3.3s.07,2.68.68,3.3a2.36,2.36,0,0,0,4-1.27h1A3.25,3.25,0,0,1,28.51,37.12Z"/><path class="cls-1" d="M39.84,36.12a3.52,3.52,0,0,1-4.92,0c-.91-.91-.91-1.85-.91-3.9s0-3,.91-3.9a3.52,3.52,0,0,1,4.92,0c.91.91.91,1.85.91,3.9S40.75,35.22,39.84,36.12ZM39,28.94a2.35,2.35,0,0,0-3.33,0c-.61.62-.68,1.27-.68,3.29s.07,2.67.68,3.29a2.35,2.35,0,0,0,3.33,0c.61-.62.68-1.27.68-3.29S39.65,29.56,39,28.94Z"/><path class="cls-1" d="M43.57,37V27.41h1v8.72h4.92V37Z"/><path class="cls-1" d="M51.73,37V27.41h1v8.72h4.92V37Z"/><path class="cls-1" d="M59.86,37V27.41h6v.92H60.89v3.4h4.22v.92H60.89v3.48h4.95V37Z"/><path class="cls-1" d="M71.38,37.12a3.43,3.43,0,0,1-2.46-1c-.91-.91-.91-1.85-.91-3.9s0-3,.91-3.9a3.42,3.42,0,0,1,2.46-1,3.25,3.25,0,0,1,3.34,2.87H73.67a2.27,2.27,0,0,0-2.29-1.95,2.32,2.32,0,0,0-1.66.68c-.61.62-.68,1.29-.68,3.3s.07,2.68.68,3.3a2.36,2.36,0,0,0,4-1.27h1A3.25,3.25,0,0,1,71.38,37.12Z"/><path class="cls-1" d="M80,28.33V37h-1V28.33H76.14v-.92h6.6v.92Z"/><path class="cls-1" d="M84.94,37V27.41h1V37Z"/><path class="cls-1" d="M94.62,36.12a3.52,3.52,0,0,1-4.92,0c-.91-.91-.91-1.85-.91-3.9s0-3,.91-3.9a3.52,3.52,0,0,1,4.92,0c.91.91.91,1.85.91,3.9S95.53,35.22,94.62,36.12Zm-.8-7.19a2.35,2.35,0,0,0-3.33,0c-.61.62-.68,1.27-.68,3.29s.07,2.67.68,3.29a2.35,2.35,0,0,0,3.33,0c.61-.62.68-1.27.68-3.29S94.43,29.56,93.83,28.94Z"/><path class="cls-1" d="M104.49,37l-5.11-7.73V37h-1V27.41h1l5.11,7.7v-7.7h1V37Z"/><path class="cls-1" d="M32.14,3.72V20.42h-2V3.72H24.83V2H37.48V3.72Z"/><path class="cls-1" d="M40.93,20.42V2H52.39V3.72H42.9v6.51H51V12H42.9v6.67h9.49v1.76Z"/><path class="cls-1" d="M70.32,20.42v-14L65.27,17.52H63.58L58.45,6.39v14h-2V2h2l6,13.1L70.32,2h2V20.42Z"/><path class="cls-1" d="M84.5,12.82H79.6v7.6h-2V2H84.5c3.37,0,5.7,2.1,5.7,5.42S87.87,12.82,84.5,12.82Zm-.18-9.1H79.6v7.34h4.72c2.31,0,3.92-1.25,3.92-3.68S86.63,3.72,84.32,3.72Z"/><path class="cls-1" d="M100.13,20.58a6.09,6.09,0,0,1-6.43-6.25V2h2V14.17a4.48,4.48,0,1,0,8.94,0V2h2V14.33A6.12,6.12,0,0,1,100.13,20.58Z"/><path class="cls-1" d="M122.27,20.42l-4.2-8.2h-4.43v8.2h-2V2h7.08c3.21,0,5.47,1.95,5.47,5.14a4.79,4.79,0,0,1-4,5l4.38,8.38ZM118.57,3.72h-4.93v6.77h4.93c2.15,0,3.68-1.12,3.68-3.37S120.72,3.72,118.57,3.72Z"/><path class="cls-1" d="M126.74,12.6V10.81h7.32V12.6Z"/><path class="cls-1" d="M144.24,20.59a6.78,6.78,0,0,1-4.86-2c-1.79-1.79-1.79-3.66-1.79-7.7s0-5.91,1.79-7.7a6.78,6.78,0,0,1,4.86-2,6.42,6.42,0,0,1,6.6,5.67h-2.08a4.49,4.49,0,0,0-4.52-3.85A4.58,4.58,0,0,0,141,4.39c-1.2,1.23-1.34,2.54-1.34,6.52s.13,5.29,1.34,6.52a4.66,4.66,0,0,0,7.85-2.51h2A6.42,6.42,0,0,1,144.24,20.59Z"/><path class="cls-1" d="M163.42,19.1a5.49,5.49,0,0,1-7.53,0c-1.34-1.36-1.6-3.21-1.6-5.24s.27-3.88,1.6-5.24a5.49,5.49,0,0,1,7.53,0c1.34,1.36,1.6,3.21,1.6,5.24S164.76,17.73,163.42,19.1Zm-1.36-9.3a3.37,3.37,0,0,0-2.41-1,3.31,3.31,0,0,0-2.38,1c-1,1-1.07,2.59-1.07,4.06s.11,3.1,1.07,4.06a3.31,3.31,0,0,0,2.38,1,3.37,3.37,0,0,0,2.41-1c1-1,1-2.59,1-4.06S163,10.75,162.06,9.79Z"/><path class="cls-1" d="M177.56,20.43v-8.1c0-2.33-1.26-3.5-3.23-3.5s-3.26,1.2-3.26,3.5v8.1h-1.92V7.28h1.92V8.72a4.74,4.74,0,0,1,3.69-1.6,4.61,4.61,0,0,1,3.37,1.23A4.86,4.86,0,0,1,179.48,12v8.42Z"/><path class="cls-1" d="M187.84,20.43a3.22,3.22,0,0,1-3.37-3.53V8.83h-1.66V7.36h1.66V3.24h1.92V7.36h2.8V8.83h-2.8v8c0,1.2.56,1.92,1.79,1.92h1v1.66Z"/><path class="cls-1" d="M201.36,19.1a5.49,5.49,0,0,1-7.53,0c-1.34-1.36-1.6-3.21-1.6-5.24s.27-3.88,1.6-5.24a5.49,5.49,0,0,1,7.53,0c1.34,1.36,1.6,3.21,1.6,5.24S202.7,17.73,201.36,19.1ZM200,9.79a3.37,3.37,0,0,0-2.41-1,3.31,3.31,0,0,0-2.38,1c-1,1-1.07,2.59-1.07,4.06s.11,3.1,1.07,4.06a3.31,3.31,0,0,0,2.38,1,3.37,3.37,0,0,0,2.41-1c1-1,1-2.59,1-4.06S201,10.75,200,9.79Z"/><path class="cls-1" d="M215.39,20.43V19a4.82,4.82,0,0,1-3.71,1.63,4.67,4.67,0,0,1-3.39-1.23,4.91,4.91,0,0,1-1.34-3.69V7.28h1.92v8.1c0,2.33,1.23,3.5,3.21,3.5s3.29-1.2,3.29-3.5V7.28h1.92V20.43Z"/><path class="cls-1" d="M229.44,9.79a2.75,2.75,0,0,0-2.27-1c-1.92,0-3.15,1.52-3.15,3.53v8.07h-1.92V7.28H224v1.6a4.42,4.42,0,0,1,3.69-1.76,4,4,0,0,1,3.15,1.23Z"/><path class="cls-1" d="M235.06,7.25V10.8h-.55V7.25h-1.12v-.5h2.8v.5Zm4.86,3.56V7.88L239,9.8h-.53l-1-1.92V10.8h-.55V6.75h.55l1.23,2.46,1.23-2.46h.54V10.8Z"/><path class="cls-1" d="M8.86,4.9A2.45,2.45,0,1,0,6.41,2.45,2.45,2.45,0,0,0,8.86,4.9"/><path class="cls-1" d="M8.86,19.15A2.45,2.45,0,1,0,6.41,16.7a2.45,2.45,0,0,0,2.45,2.45"/><path class="cls-1" d="M15.33,15.86a2.45,2.45,0,1,0-2.45-2.45,2.45,2.45,0,0,0,2.45,2.45"/><path class="cls-1" d="M2.45,15.86A2.45,2.45,0,1,0,0,13.41a2.45,2.45,0,0,0,2.45,2.45"/><path class="cls-1" d="M15.33,8.53a2.45,2.45,0,1,0-2.45-2.45,2.45,2.45,0,0,0,2.45,2.45"/><path class="cls-1" d="M2.45,8.53A2.45,2.45,0,1,0,0,6.08,2.45,2.45,0,0,0,2.45,8.53"/></g></g></svg>