
<!-- Generator: Adobe Illustrator 21.1.0, SVG Export Plug-In  -->
<svg version="1.1"
	 xmlns="http://www.w3.org/2000/svg" xmlns:xlink="http://www.w3.org/1999/xlink" xmlns:a="http://ns.adobe.com/AdobeSVGViewerExtensions/3.0/"
	 x="0px" y="0px" width="33.1px" height="35.8px" viewBox="0 0 33.1 35.8" style="enable-background:new 0 0 33.1 35.8;"
	 xml:space="preserve">
<style type="text/css">
	.st0{fill:#919191;}
</style>
<defs>
</defs>
<g>
	<g>
		<path id="XMLID_1_" class="st0" d="M31.5,19.6l-6.6,1.7L19,17.9l5.9-3.4l6.6,1.8c0.1,0,0.2,0,0.3,0c0.5,0,1-0.4,1.2-0.9
			c0.2-0.7-0.2-1.3-0.9-1.5l-4.2-1.1l3.7-2.1c0.6-0.3,0.8-1.1,0.4-1.7c-0.3-0.6-1.1-0.8-1.7-0.4l-3.7,2.1l1.1-4.2
			C28,5.8,27.6,5.1,27,4.9c-0.7-0.2-1.3,0.2-1.5,0.9l-1.8,6.6l-6,3.4V8.9l4.8-4.8c0.5-0.5,0.5-1.3,0-1.7c-0.5-0.5-1.3-0.5-1.7,0
			l-3.1,3.1V1.2c0-0.7-0.5-1.2-1.2-1.2c-0.7,0-1.2,0.5-1.2,1.2v4.2l-3.1-3.1c-0.5-0.5-1.3-0.5-1.7,0c-0.5,0.5-0.5,1.3,0,1.7l4.8,4.8
			v6.8l-5.9-3.4L7.6,5.7C7.5,5.1,6.8,4.7,6.1,4.9C5.5,5,5.1,5.7,5.3,6.4l1.1,4.2L2.7,8.5C2.2,8.1,1.4,8.3,1.1,8.9
			c-0.3,0.6-0.1,1.3,0.4,1.7l3.7,2.1l-4.2,1.1c-0.7,0.2-1.1,0.8-0.9,1.5c0.1,0.6,0.6,0.9,1.2,0.9c0.1,0,0.2,0,0.3,0l6.6-1.7l5.9,3.5
			l-5.9,3.4l-6.6-1.8c-0.7-0.2-1.3,0.2-1.5,0.9c-0.2,0.7,0.2,1.3,0.9,1.5l4.3,1.2l-3.7,2.1c-0.6,0.3-0.8,1.1-0.4,1.7
			c0.2,0.4,0.6,0.6,1.1,0.6c0.2,0,0.4-0.1,0.6-0.2l3.6-2.1l-1.1,4.2C5,30,5.4,30.7,6.1,30.9c0.1,0,0.2,0,0.3,0c0.5,0,1-0.4,1.2-0.9
			l1.8-6.5l6-3.5v6.9l-4.8,4.8c-0.5,0.5-0.5,1.3,0,1.7c0.5,0.5,1.3,0.5,1.7,0l3.1-3.1v4.2c0,0.7,0.5,1.2,1.2,1.2
			c0.7,0,1.2-0.5,1.2-1.2v-4.2l3.1,3.1c0.2,0.2,0.6,0.4,0.9,0.4c0.3,0,0.6-0.1,0.9-0.4c0.5-0.5,0.5-1.3,0-1.7l-4.8-4.8V20l5.9,3.4
			l1.7,6.6c0.1,0.6,0.6,0.9,1.2,0.9c0.1,0,0.2,0,0.3,0c0.7-0.2,1.1-0.8,0.9-1.5l-1.1-4.2l3.7,2.1c0.2,0.1,0.4,0.2,0.6,0.2
			c0.4,0,0.8-0.2,1.1-0.6c0.3-0.6,0.1-1.3-0.4-1.7l-3.7-2.1l4.2-1.1c0.7-0.2,1.1-0.8,0.9-1.5C32.8,19.8,32.2,19.5,31.5,19.6z"/>
	</g>
</g>
</svg>
