<!-- Generator: Adobe Illustrator 21.1.0, SVG Export Plug-In  -->
<svg version="1.1"
	 xmlns="http://www.w3.org/2000/svg" xmlns:xlink="http://www.w3.org/1999/xlink" xmlns:a="http://ns.adobe.com/AdobeSVGViewerExtensions/3.0/"
	 x="0px" y="0px" width="18px" height="37.4px" viewBox="0 0 18 37.4" style="enable-background:new 0 0 18 37.4;"
	 xml:space="preserve">
<style type="text/css">
	.st0{fill:#919191;}
</style>
<defs>
</defs>
<g>
	<g>
		<path class="st0" d="M9,34.5c3.3,0,6.1-2.7,6.1-6.1c0-2-1-3.9-2.7-5.1l-1.6-1.1l0-6.7H7.3l0,6.7l-1.6,1.1c-1.7,1.1-2.7,3-2.7,5.1
			C2.9,31.8,5.6,34.5,9,34.5"/>
		<path class="st0" d="M9,37.4v-1.1c4.3,0,7.9-3.5,7.9-7.9c0-2.7-1.3-5.1-3.5-6.6l-0.8-0.5l0-17.1c0-1.8-1.5-3.2-3.5-3.2
			c-2,0-3.5,1.4-3.6,3.2l0,17.1l-0.8,0.5c-2.2,1.5-3.5,3.9-3.5,6.6c0,4.3,3.5,7.9,7.9,7.9L9,37.4c-5,0-9-4-9-9c0-3,1.5-5.8,4-7.5
			l0.3-0.2l0-16.5C4.4,1.8,6.4,0,9,0c2.6,0,4.6,1.8,4.7,4.3l0,16.5l0.3,0.2c2.5,1.7,4,4.5,4,7.5C18,33.4,13.9,37.4,9,37.4z"/>
	</g>
</g>
</svg>
