<!-- Generator: Adobe Illustrator 21.1.0, SVG Export Plug-In  -->
<svg version="1.1"
	 xmlns="http://www.w3.org/2000/svg" xmlns:xlink="http://www.w3.org/1999/xlink" xmlns:a="http://ns.adobe.com/AdobeSVGViewerExtensions/3.0/"
	 x="0px" y="0px" width="171.9px" height="70.5px" viewBox="0 0 171.9 70.5" style="enable-background:new 0 0 171.9 70.5;"
	 xml:space="preserve">
<style type="text/css">
	.st0{fill:#77BD43;}
	.st1{fill:#232C64;}
</style>
<defs>
</defs>
<g>
	<path id="_x3C_-Pedic_x3E__2_" class="st0" d="M109.3,46.7h2.5v-7h2.5c3.2,0,6.2-1.4,6.2-5.3c0-4-3-5.3-6.6-5.3h-4.6V46.7z
		 M111.8,31.4h2.1c1.6,0,3.9,0.8,3.9,3c0,2.3-2,3.1-3.5,3.1h-2.5V31.4z M133.7,46.7h5.2c5.8,0,9.4-3,9.4-8.9c0-5.4-4.1-8.6-9.4-8.6
		h-5.2V46.7z M136.3,31.4h2.9c3.6,0,6.4,2.4,6.4,6.5c0,4.5-2.4,6.6-6.7,6.6h-2.6V31.4z M150,46.7h2.5V29.2H150V46.7z M167.5,29.6
		c-1.3-0.6-2.6-0.8-3.9-0.8c-5.4,0-9.3,3.6-9.3,9c0,5.6,3.7,9.1,9.3,9.1c1,0,2.7-0.1,4-0.6l-0.1-2.4c-0.9,0.5-2.6,0.9-3.8,0.9
		c-3.6,0-6.6-2.7-6.6-6.9c0-3.9,2.7-6.9,6.7-6.9c1.3,0,2.5,0.3,3.6,1L167.5,29.6z M169.1,30.4c0,0.8,0.6,1.4,1.4,1.4
		s1.4-0.6,1.4-1.4s-0.6-1.4-1.4-1.4S169.1,29.6,169.1,30.4 M171.6,30.4c0,0.7-0.5,1.1-1.1,1.1c-0.6,0-1.1-0.5-1.1-1.1
		c0-0.7,0.5-1.1,1.1-1.1C171.1,29.2,171.6,29.7,171.6,30.4 M170,31.2h0.3v-0.7h0.2l0.4,0.7h0.3l-0.4-0.7c0.3,0,0.4-0.2,0.4-0.4
		c0-0.3-0.2-0.5-0.6-0.5H170V31.2z M170.3,29.8h0.3c0.2,0,0.3,0,0.3,0.2c0,0.2-0.2,0.2-0.3,0.2h-0.3V29.8z M100.4,39.7h6.8v-2.3
		h-6.8V39.7z M122.1,46.7h9.8v-2.2h-7.3v-5.8h6.7v-2.2h-6.7v-5.1h7.3v-2.2h-9.8V46.7z"/>
	<path id="_x3C_Tempur_x3E__2_" class="st1" d="M4.3,46.7H9V32.6h4.3v-3.5H0v3.5h4.3V46.7z M14.6,46.7h12.6v-3.3h-8v-4h7.3v-3.3
		h-7.3v-3.6H27v-3.3H14.6V46.7z M29,46.7h4.6l-0.1-13.5h0.1l4.3,13.5h4.3l4.5-13.5h0l-0.1,13.5h4.6V29.2H44l-3.9,11.7h-0.1
		l-3.7-11.7H29V46.7z M53.7,46.7h4.7v-6.1h1.8c4.4,0,7-2.1,7-5.7c0-3.9-2.5-5.8-7.9-5.8h-5.6V46.7z M58.3,32.5h1.2
		c1.6,0,2.9,0.6,2.9,2.4c0,1.8-1.3,2.4-2.9,2.4h-1.2V32.5z M83.9,29.2h-4.7v10.1c0,2.3-0.6,4.3-3,4.3c-2.4,0-3-2-3-4.3V29.2h-4.7V40
		c0,4.8,3.1,7,7.7,7c4.6,0,7.7-2.2,7.7-7V29.2z M85.8,46.7h4.7v-6.9h1c1.7,0,2.3,0.8,3.3,3.8l1,3.2h4.9l-1.7-4.8
		c-0.9-2.1-1-3.5-2.5-3.9V38c2.3-0.5,3.4-2.1,3.4-4.4c0-3-2.5-4.4-5.6-4.4h-8.3V46.7z M90.5,32.5h1.2c1.8,0,3.4,0.3,3.4,1.9
		c0,2-1.9,2-3.4,2h-1.2V32.5z"/>
	<path id="_x3C_Figure_x3E__2_" class="st1" d="M50.7,15.2c0-0.1,0.1-0.1,0.1-0.1v0c0.1,0,0.2,0,0.3,0.1c5.6,0.4,9.5,0.5,12.4,0.3
		c3.1-0.2,8.8,0.6,10.4,0.8c0.1,0,0.1,0.1,0.1,0.1c0,0,0,0,0,0c0,0.1-0.1,0.1-0.1,0.1c-1.9-0.3-5.5-0.5-8.5-0.3
		c-2,0.2-9,0.5-14.3-0.9c0,0,0,0-0.1,0l-0.2-0.1l0,0l0,0C50.7,15.4,50.7,15.3,50.7,15.2C50.7,15.3,50.7,15.2,50.7,15.2 M152.9,19.7
		c-0.5-0.5-1.3-0.4-1.9-0.3c-0.4,0.1-0.7,0.1-0.9,0c-2-1.7-2.9-1-4.2-0.2c-0.2,0.1-0.3,0.2-0.5,0.3c-0.2,0.1-0.5,0.2-0.7,0.3
		c-0.5,0.2-1,0.5-1.6,0.7c-0.8,0.2-1.8,0.3-3.1,0.2c-2.1-0.2-4.7-1.4-7.5-2.8c-4-1.9-8.6-4.1-13.1-3.8c-7.5,0.4-10.1-0.3-17.6-4.6
		c-9.7-5.6-15-7.4-22.9-4c-0.1,0.1-0.2,0.1-0.4,0.1c-0.4,0.2-0.8,0.3-1.3,0.5c-0.2,0.1-0.4,0.2-0.7,0.3c-5.7,2-8.6,0.7-14.5-2
		l-4.6-2.1c-9.8-4.2-12.8-2.5-15.1,2.3c-1.5,3-2.9,5-4.3,5.9c-0.8-1.8-2.7-3.2-4.2-3.6c-2.5-0.6-4.2-1.5-4.5-1.6c0,0-1.3-1.7-4-2.1
		c-3-0.5-5,0.4-6.5,1.5c-1.8,1.4-2.8,3.7-2.5,6.2c0.4,3.2,2.3,5.2,2.3,5.2c0,0,0.1,0,0.2,0c0.1,0,0.1-0.1,0-0.2
		c-0.9-1.2-1.6-2.4-1.7-4.3c-0.2-2,0.3-4.2,2-5.7c1.9-1.7,4.4-2,6.5-1.5c2.6,0.6,3.9,3.2,4.6,5.4c0.8,2.4,1.7,5,5.8,4.7
		c2.3-0.2,4.3,1,5.2,2.9c0.9,2,0.2,4.3-1.7,6.2c-0.1,0-0.1,0.1,0,0.2c0,0.1,0.1,0.1,0.2,0l0.9-0.9c1.8-2,2.3-4.3,1.3-6.4
		c-0.9-1.9-2.7-2.9-5-2.8c-4.2,0.1-4.8-1.9-5.4-4.3c-0.3-1.1-0.7-1.9-1.4-2.9c0.9,0.6,1.9,0.9,3.5,1.3c1.3,0.3,3.1,1.5,3.9,3.1
		c-0.2,0.1-0.4,0.1-0.5,0.2c-1,0.3-2.1,0-3.2-0.8c-0.1-0.1-0.2-0.1-0.3-0.2l0,0c-0.1,0-0.1,0-0.2,0c0,0,0,0.1,0,0.1
		c0,0,0,0.1,0.1,0.1h0l0.2,0.1c0,0,0.1,0,0.1,0c1,0.7,2.4,1.4,3.9,1c1.9-0.5,3.6-2.4,5.3-6c2.1-4.4,4-5.9,14-2
		c2.1,0.8,3.8,1.6,5.4,2.3c5.6,2.5,8.1,3.5,14.7,0.8C77.4,6.5,78,6.3,78.7,6c7.1-2.5,13.1-0.4,22.5,5.1c5.7,3.3,9.2,3.5,13.7,3.7
		c1.5,0.1,3.1,0.2,4.9,0.4c5,0.6,8.6,2.3,11.7,3.8c0,0,0,0,0,0c-8.4-2.9-12.2-2.1-15.6-1.4c-2.2,0.4-4,0.8-6.7,0.2
		c-11.6-2.6-16-1.9-18.6-1.4c0.7-0.8,0.9-2,0.8-3.3c-0.1-0.9-0.4-1.9-0.9-3c0,0-0.1-0.1-0.1-0.1c0,0,0,0,0,0c0,0-0.1,0.1-0.1,0.1
		c0,0,0,0,0,0c0.3,0.7,0.5,1.3,0.6,2c0.2,2.1-0.8,3.9-2.2,4.7c0,0-0.1,0.1-0.1,0.1l0,0c0,0,0,0.1,0.1,0.1c0.5,0.2,1,0.7,1.3,1.4
		c0.2,0.5,0.4,1.1,0.5,1.7c0.1,1,0,2.2-0.5,3.4c0,0,0,0,0,0.1c0,0,0,0.1,0.1,0.1c0,0,0.1,0,0.1,0c0,0,0,0,0,0l0,0l0,0
		c0.9-1.2,1.2-3,1-4.5c0-0.3-0.1-0.6-0.1-0.8c-0.1-0.3-0.2-0.6-0.4-0.9l0,0l0.3-0.1c2.6-0.5,6.5-1.2,18.4,1c2.7,0.5,4.6,0.3,6.8,0
		c3.8-0.5,8.5-1,20,2.5c0,0,0,0,0,0c0.8,0.2,1.6,0.4,2.4,0.5c2.2,0.2,3.7-0.2,4.9-0.6c0.9-0.2,1.7-0.6,2.2-1
		c1.3-0.6,2.4-0.8,4.1,0.6c0.2,0.2,0.7,0.1,1.2,0.1c0.6-0.1,1.4-0.2,1.8,0.2c0.6,0.4,0.4,2.2,0.3,3.1c0,0.1,0.1,0.1,0.1,0.1
		c0.1,0,0.1-0.1,0.1-0.1c0,0,0,0,0,0c0,0,0,0,0,0c0-0.4,0.2-1.9,0.2-2.3C153.5,20.6,153.3,20.1,152.9,19.7 M37.8,16.2
		c-2.3-1.5-5.4-0.4-8.3,1c-6.9,3.4-7.3-0.1-12.6-0.1c-2.8,0-3.1,2.3-3.1,3.2c0,0.9,0.2,2.3,0.7,3.4c0,0,0,0,0,0v0c0,0,0,0,0,0
		c0,0.1,0.1,0.1,0.2,0.1c0.1,0,0.1-0.1,0.1-0.2c-0.6-1.6-0.8-4.9,2.4-4.9c4.7,0,6,3.4,12.9-0.2c2.5-1.3,4.9-2.3,7-0.9
		c1.5,1,2.2,3.3,0.9,5.9c0,0.1,0,0.1,0,0.2c0.1,0,0.1,0,0.2,0l0.1-0.1c0,0,0,0,0,0C39.8,20.3,40.4,17.9,37.8,16.2"/>
	<path id="_x3C_TSIP_x3E__2_" class="st0" d="M113.9,70.5"/>
	<path id="XMLID_15_" class="st0" d="M0.5,68.3c-0.1-0.1-0.1-0.3,0-0.4l1.8-2c0.1-0.1,0.2-0.1,0.3,0c1,0.8,2.5,1.6,4.1,1.6
		c1.6,0,2.6-0.8,2.6-1.9c0-0.9-0.6-1.5-2.4-1.8L6,63.7c-3.2-0.4-5-1.9-5-4.7c0-2.9,2.2-4.8,5.6-4.8c2.1,0,4,0.6,5.4,1.6
		c0.1,0.1,0.2,0.2,0,0.3l-1.4,2.1c-0.1,0.1-0.2,0.1-0.3,0.1c-1.2-0.8-2.4-1.2-3.7-1.2c-1.4,0-2.1,0.7-2.1,1.7c0,0.9,0.6,1.5,2.5,1.7
		l0.8,0.1c3.2,0.4,5,1.9,5,4.8c0,2.9-2.1,5-6.2,5C4.1,70.5,1.7,69.5,0.5,68.3z"/>
	<path id="XMLID_14_" class="st0" d="M14.6,54.7c0-0.1,0.1-0.2,0.2-0.2h2.9c0.1,0,0.2,0.1,0.2,0.2V67c0,0.1,0,0.1,0.1,0.1h7
		c0.1,0,0.2,0.1,0.2,0.2V70c0,0.1-0.1,0.2-0.2,0.2H14.8c-0.1,0-0.2-0.1-0.2-0.2V54.7z"/>
	<path id="XMLID_13_" class="st0" d="M26.3,54.7c0-0.1,0.1-0.2,0.2-0.2h10.1c0.1,0,0.2,0.1,0.2,0.2v2.5c0,0.1-0.1,0.2-0.2,0.2h-6.8
		c-0.1,0-0.1,0-0.1,0.1v3.1c0,0.1,0,0.1,0.1,0.1h5.7c0.1,0,0.2,0.1,0.2,0.2v2.5c0,0.1-0.1,0.2-0.2,0.2h-5.7c-0.1,0-0.1,0-0.1,0.1
		v3.3c0,0.1,0,0.1,0.1,0.1h6.8c0.1,0,0.2,0.1,0.2,0.2V70c0,0.1-0.1,0.2-0.2,0.2H26.6c-0.1,0-0.2-0.1-0.2-0.2V54.7z"/>
	<path id="XMLID_12_" class="st0" d="M39,54.7c0-0.1,0.1-0.2,0.2-0.2h10.1c0.1,0,0.2,0.1,0.2,0.2v2.5c0,0.1-0.1,0.2-0.2,0.2h-6.8
		c-0.1,0-0.1,0-0.1,0.1v3.1c0,0.1,0,0.1,0.1,0.1h5.7c0.1,0,0.2,0.1,0.2,0.2v2.5c0,0.1-0.1,0.2-0.2,0.2h-5.7c-0.1,0-0.1,0-0.1,0.1
		v3.3c0,0.1,0,0.1,0.1,0.1h6.8c0.1,0,0.2,0.1,0.2,0.2V70c0,0.1-0.1,0.2-0.2,0.2H39.2c-0.1,0-0.2-0.1-0.2-0.2V54.7z"/>
	<path class="st0" d="M57.4,54.4h-6.1c-0.1,0-0.2,0.1-0.2,0.2V70c0,0.1,0.1,0.2,0.2,0.2h2.9c0.1,0,0.2-0.1,0.2-0.2v-5.3
		c0-0.1,0-0.1,0.1-0.1h2.8c3.4,0,5.5-2.1,5.5-5.1C62.9,56.5,60.9,54.4,57.4,54.4z M57.2,61.6h-2.6c-0.1,0-0.1,0-0.1-0.1v-4
		c0-0.1,0-0.1,0.1-0.1h2.6c1.4,0,2.3,0.9,2.3,2.1C59.5,60.8,58.7,61.6,57.2,61.6z"/>
	<path id="XMLID_11_" class="st0" d="M71,54.7c0-0.1,0.1-0.2,0.2-0.2h2.9c0.1,0,0.2,0.1,0.2,0.2V70c0,0.1-0.1,0.2-0.2,0.2h-2.9
		c-0.1,0-0.2-0.1-0.2-0.2V54.7z"/>
	<path id="XMLID_4_" class="st0" d="M75.7,68.3c-0.1-0.1-0.1-0.3,0-0.4l1.8-2c0.1-0.1,0.2-0.1,0.3,0c1,0.8,2.5,1.6,4.1,1.6
		c1.6,0,2.6-0.8,2.6-1.9c0-0.9-0.6-1.5-2.4-1.8l-0.8-0.1c-3.2-0.4-5-1.9-5-4.7c0-2.9,2.2-4.8,5.6-4.8c2.1,0,4,0.6,5.4,1.6
		c0.1,0.1,0.2,0.2,0,0.3l-1.4,2.1c-0.1,0.1-0.2,0.1-0.3,0.1c-1.2-0.8-2.4-1.2-3.7-1.2c-1.4,0-2.1,0.7-2.1,1.7c0,0.9,0.6,1.5,2.5,1.7
		l0.8,0.1c3.2,0.4,5,1.9,5,4.8c0,2.9-2.1,5-6.2,5C79.3,70.5,76.9,69.5,75.7,68.3z"/>
	<path class="st0" d="M103.3,54.4h-6.1c-0.1,0-0.2,0.1-0.2,0.2V70c0,0.1,0.1,0.2,0.2,0.2h2.9c0.1,0,0.2-0.1,0.2-0.2v-5.3
		c0-0.1,0-0.1,0.1-0.1h2.8c3.4,0,5.5-2.1,5.5-5.1C108.8,56.5,106.7,54.4,103.3,54.4z M103.1,61.6h-2.6c-0.1,0-0.1,0-0.1-0.1v-4
		c0-0.1,0-0.1,0.1-0.1h2.6c1.4,0,2.3,0.9,2.3,2.1C105.4,60.8,104.5,61.6,103.1,61.6z"/>
	<path class="st0" d="M122,58c-0.8-2.6-3-3.8-5.8-3.8c-2.8,0-4.9,1.3-5.8,3.8c-0.3,1.1-0.4,2-0.4,4.3c0,2.3,0.1,3.2,0.4,4.3
		c0.8,2.6,3,3.8,5.8,3.8c2.8,0,4.9-1.3,5.8-3.8c0.3-1.1,0.4-2,0.4-4.3C122.5,60,122.4,59.1,122,58z M118.8,65.7
		c-0.3,1.1-1.2,1.7-2.5,1.7c-1.3,0-2.1-0.6-2.5-1.7c-0.2-0.6-0.3-1.3-0.3-3.4c0-2.1,0.1-2.8,0.3-3.4c0.3-1.1,1.2-1.7,2.5-1.7
		c1.3,0,2.1,0.6,2.5,1.7c0.2,0.6,0.3,1.3,0.3,3.4C119,64.4,119,65.1,118.8,65.7z"/>
	<path id="XMLID_3_" class="st0" d="M135.4,70.2c-0.2,0-0.3-0.1-0.3-0.2l-2.7-9.8h0l-2.8,9.8c0,0.1-0.1,0.2-0.3,0.2h-2.3
		c-0.1,0-0.2-0.1-0.3-0.2l-4.1-15.3c0-0.1,0-0.2,0.2-0.2h3c0.2,0,0.3,0.1,0.3,0.2l2.3,9.9h0l2.7-9.9c0-0.1,0.1-0.2,0.3-0.2h2
		c0.1,0,0.2,0.1,0.3,0.2l2.8,9.9h0l2.2-9.9c0-0.2,0.1-0.2,0.3-0.2h3c0.2,0,0.2,0.1,0.2,0.2L138,70c0,0.1-0.1,0.2-0.3,0.2H135.4z"/>
	<path id="XMLID_2_" class="st0" d="M142.8,54.7c0-0.1,0.1-0.2,0.2-0.2h10.1c0.1,0,0.2,0.1,0.2,0.2v2.5c0,0.1-0.1,0.2-0.2,0.2h-6.8
		c-0.1,0-0.1,0-0.1,0.1v3.1c0,0.1,0,0.1,0.1,0.1h5.7c0.1,0,0.2,0.1,0.2,0.2v2.5c0,0.1-0.1,0.2-0.2,0.2h-5.7c-0.1,0-0.1,0-0.1,0.1
		v3.3c0,0.1,0,0.1,0.1,0.1h6.8c0.1,0,0.2,0.1,0.2,0.2V70c0,0.1-0.1,0.2-0.2,0.2h-10.1c-0.1,0-0.2-0.1-0.2-0.2V54.7z"/>
	<path class="st0" d="M167.7,69.9l-3.1-6.2c1.7-0.8,2.8-2.4,2.8-4.4c0-2.9-2.1-4.9-5.4-4.9h-6.3c-0.1,0-0.2,0.1-0.2,0.2V70
		c0,0.1,0.1,0.2,0.2,0.2h2.9c0.1,0,0.2-0.1,0.2-0.2v-5.6c0-0.1,0-0.1,0.1-0.1h2.1l2.7,5.8c0.1,0.2,0.1,0.2,0.3,0.2h3.3
		C167.7,70.2,167.8,70.1,167.7,69.9z M161.8,61.3h-2.8c-0.1,0-0.1,0-0.1-0.1v-3.6c0-0.1,0-0.1,0.1-0.1h2.8c1.3,0,2.1,0.8,2.1,1.9
		C164,60.5,163.1,61.3,161.8,61.3z"/>
	<path id="XMLID_1_" class="st0" d="M168.2,67.2c0-0.1,0.1-0.2,0.2-0.2h2.8c0.1,0,0.2,0.1,0.2,0.2V70c0,0.1-0.1,0.2-0.2,0.2h-2.8
		c-0.1,0-0.2-0.1-0.2-0.2V67.2z"/>
</g>
</svg>
