<!-- Generator: Adobe Illustrator 21.1.0, SVG Export Plug-In  -->
<svg version="1.1"
	 xmlns="http://www.w3.org/2000/svg" xmlns:xlink="http://www.w3.org/1999/xlink" xmlns:a="http://ns.adobe.com/AdobeSVGViewerExtensions/3.0/"
	 x="0px" y="0px" width="28.2px" height="37.7px" viewBox="0 0 28.2 37.7" style="enable-background:new 0 0 28.2 37.7;"
	 xml:space="preserve">
<style type="text/css">
	.st0{fill:#919191;}
</style>
<defs>
</defs>
<g>
	<g>
		<path class="st0" d="M28.2,37.7H0V0h28.2V37.7L28.2,37.7z M1,36.7h26.2V1H1V36.7L1,36.7z"/>
		<polygon class="st0" points="27.9,6.7 0.4,6.7 0.4,5.7 27.9,5.7 27.9,6.7 		"/>
		<path class="st0" d="M7.2,4.8H2.1V1.9h5.1V4.8L7.2,4.8z M2.9,4h3.6V2.7H2.9V4L2.9,4z"/>
		<path class="st0" d="M10.7,4.8c-0.8,0-1.4-0.6-1.4-1.4C9.3,2.6,9.9,2,10.7,2c0.8,0,1.4,0.6,1.4,1.4C12.1,4.2,11.5,4.8,10.7,4.8
			L10.7,4.8z M10.7,2.7C10.3,2.7,10,3,10,3.4c0,0.4,0.3,0.7,0.7,0.7c0.4,0,0.7-0.3,0.7-0.7C11.4,3,11.1,2.7,10.7,2.7L10.7,2.7z"/>
		<path class="st0" d="M22.3,3.3c-0.5,0-0.8-0.4-0.8-0.8c0-0.5,0.4-0.8,0.8-0.8c0.5,0,0.8,0.4,0.8,0.8C23.1,2.9,22.7,3.3,22.3,3.3
			L22.3,3.3z M22.3,2.1c-0.2,0-0.3,0.1-0.3,0.3c0,0.2,0.1,0.3,0.3,0.3c0.2,0,0.3-0.1,0.3-0.3C22.6,2.3,22.4,2.1,22.3,2.1L22.3,2.1z"
			/>
		<path class="st0" d="M22.3,5.2c-0.5,0-0.8-0.4-0.8-0.8c0-0.5,0.4-0.8,0.8-0.8c0.5,0,0.8,0.4,0.8,0.8C23.1,4.8,22.7,5.2,22.3,5.2
			L22.3,5.2z M22.3,4C22.1,4,22,4.2,22,4.3c0,0.2,0.1,0.3,0.3,0.3c0.2,0,0.3-0.1,0.3-0.3C22.6,4.2,22.4,4,22.3,4L22.3,4z"/>
		<path class="st0" d="M14.9,4.8c-0.8,0-1.4-0.6-1.4-1.4c0-0.8,0.6-1.4,1.4-1.4c0.8,0,1.4,0.6,1.4,1.4C16.4,4.2,15.7,4.8,14.9,4.8
			L14.9,4.8z M14.9,2.7c-0.4,0-0.7,0.3-0.7,0.7c0,0.4,0.3,0.7,0.7,0.7c0.4,0,0.7-0.3,0.7-0.7C15.6,3,15.3,2.7,14.9,2.7L14.9,2.7z"/>
		<path class="st0" d="M25.4,3.3c-0.5,0-0.8-0.4-0.8-0.8c0-0.5,0.4-0.8,0.8-0.8c0.5,0,0.8,0.4,0.8,0.8C26.2,2.9,25.9,3.3,25.4,3.3
			L25.4,3.3z M25.4,2.1c-0.2,0-0.3,0.1-0.3,0.3c0,0.2,0.1,0.3,0.3,0.3c0.2,0,0.3-0.1,0.3-0.3C25.7,2.3,25.6,2.1,25.4,2.1L25.4,2.1z"
			/>
		<path class="st0" d="M25.4,5.2c-0.5,0-0.8-0.4-0.8-0.8c0-0.5,0.4-0.8,0.8-0.8c0.5,0,0.8,0.4,0.8,0.8C26.2,4.8,25.9,5.2,25.4,5.2
			L25.4,5.2z M25.4,4c-0.2,0-0.3,0.1-0.3,0.3c0,0.2,0.1,0.3,0.3,0.3c0.2,0,0.3-0.1,0.3-0.3C25.7,4.2,25.6,4,25.4,4L25.4,4z"/>
		<polygon class="st0" points="18.2,16.5 18.2,27.1 19.1,27.1 19.1,16.5 18.2,16.5 		"/>
		<path class="st0" d="M14.1,31.4c-5.4,0-9.7-4.4-9.7-9.7c0-5.4,4.4-9.7,9.7-9.7c5.4,0,9.7,4.4,9.7,9.7
			C23.8,27.1,19.5,31.4,14.1,31.4L14.1,31.4z M14.1,13c-4.8,0-8.7,3.9-8.7,8.7c0,4.8,3.9,8.7,8.7,8.7c4.8,0,8.7-3.9,8.7-8.7
			C22.8,16.9,18.9,13,14.1,13L14.1,13z"/>
		<path class="st0" d="M14.1,29.3c-4.2,0-7.6-3.4-7.6-7.6c0-4.2,3.4-7.6,7.6-7.6c4.2,0,7.6,3.4,7.6,7.6
			C21.7,25.9,18.3,29.3,14.1,29.3L14.1,29.3z M14.1,15.1c-3.6,0-6.6,3-6.6,6.6c0,3.6,3,6.6,6.6,6.6c3.6,0,6.6-3,6.6-6.6
			C20.7,18.1,17.8,15.1,14.1,15.1L14.1,15.1z"/>
	</g>
</g>
</svg>
