<svg xmlns="http://www.w3.org/2000/svg" viewBox="0 0 39.99 43.33"><defs><style>.cls-1{fill:#919191;}</style></defs><title>cooling-system</title><g id="Layer_2" data-name="Layer 2"><g id="Innovation_Inside" data-name="Innovation Inside"><path id="_Path_" data-name="&lt;Path&gt;" class="cls-1" d="M38.1,23.75l-8,2.1L23,21.67l7.16-4.14,8,2.16a1.49,1.49,0,1,0,.78-2.88l-5.13-1.38,4.48-2.59a1.47,1.47,0,1,0-1.47-2.55l-4.43,2.56L33.7,7.79A1.49,1.49,0,1,0,30.82,7l-2.15,8-7.2,4.17V10.82L27.31,5A1.49,1.49,0,0,0,25.2,2.87L21.47,6.6V1.47a1.47,1.47,0,0,0-2.94,0V6.6L14.8,2.87A1.49,1.49,0,0,0,12.69,5l5.84,5.84V19.1l-7.17-4.17-2.11-8a1.49,1.49,0,0,0-2.89.76l1.34,5.09L3.3,10.24a1.47,1.47,0,0,0-1.48,2.54l4.42,2.57L1.13,16.7a1.49,1.49,0,1,0,.76,2.89l8-2.11,7.2,4.19L9.91,25.82l-8-2.17a1.49,1.49,0,1,0-.78,2.88l5.16,1.39L1.81,30.51a1.47,1.47,0,1,0,1.47,2.55l4.37-2.53-1.36,5a1.49,1.49,0,1,0,2.88.78l2.14-7.92,7.22-4.18v8.29l-5.84,5.84a1.49,1.49,0,0,0,2.11,2.11l3.73-3.73v5.12a1.47,1.47,0,0,0,2.94,0V36.74l3.73,3.73a1.49,1.49,0,0,0,2.11-2.11l-5.84-5.84V24.21l7.15,4.16,2.12,8a1.49,1.49,0,0,0,2.89-.76l-1.36-5.14,4.47,2.6a1.47,1.47,0,0,0,1.48-2.54L33.79,28l5.07-1.34a1.49,1.49,0,1,0-.76-2.89Z"/></g></g></svg>