<svg xmlns="http://www.w3.org/2000/svg" viewBox="0 0 21.73 45.26"><defs><style>.cls-1{fill:#919191;}</style></defs><title>smart-climate</title><g id="Layer_2" data-name="Layer 2"><g id="Innovation_Inside" data-name="Innovation Inside"><path class="cls-1" d="M10.87,41.72a7.33,7.33,0,0,0,4-13.45L13,27V18.86H8.77V27L6.84,28.28a7.33,7.33,0,0,0,4,13.45"/><path class="cls-1" d="M10.87,45.26V43.93a9.54,9.54,0,0,0,5.25-17.5l-.94-.62V5.16a4,4,0,0,0-4.28-3.83A4,4,0,0,0,6.56,5.17V25.81l-.94.62a9.54,9.54,0,0,0,5.25,17.5v1.33a10.86,10.86,0,0,1-6-19.93l.35-.23V5.16A5.32,5.32,0,0,1,10.85,0a5.33,5.33,0,0,1,5.64,5.15V25.1l.35.23a10.86,10.86,0,0,1-6,19.93Z"/></g></g></svg>