<svg xmlns="http://www.w3.org/2000/svg" viewBox="0 0 234.85 38.77"><defs><style>.cls-1{fill:#fff;}</style></defs><title>breeze_logotype</title><g id="Layer_2" data-name="Layer 2"><g id="Layer_1-2" data-name="Layer 1"><path class="cls-1" d="M29.5,38.77a3.58,3.58,0,0,1-2.57-1C26,36.78,26,35.79,26,33.66s0-3.12.94-4.07a3.58,3.58,0,0,1,2.57-1,3.39,3.39,0,0,1,3.49,3h-1.1a2.37,2.37,0,0,0-2.39-2,2.42,2.42,0,0,0-1.73.71c-.63.65-.71,1.34-.71,3.45s.07,2.8.71,3.45a2.46,2.46,0,0,0,4.15-1.33H33A3.39,3.39,0,0,1,29.5,38.77Z"/><path class="cls-1" d="M41.34,37.73a3.68,3.68,0,0,1-5.14,0c-.94-.95-.94-1.94-.94-4.07s0-3.12.94-4.07a3.68,3.68,0,0,1,5.14,0c.94.95.94,1.94.94,4.07S42.29,36.78,41.34,37.73Zm-.83-7.5a2.45,2.45,0,0,0-3.47,0c-.63.65-.71,1.33-.71,3.43s.07,2.78.71,3.43a2.45,2.45,0,0,0,3.47,0c.63-.65.71-1.33.71-3.43S41.14,30.87,40.51,30.22Z"/><path class="cls-1" d="M45.24,38.69V28.63h1.07v9.1h5.14v1Z"/><path class="cls-1" d="M53.74,38.69V28.63h1.07v9.1H60v1Z"/><path class="cls-1" d="M62.24,38.69V28.63h6.24v1H63.32v3.55h4.4v1h-4.4v3.63h5.16v1Z"/><path class="cls-1" d="M74.27,38.77a3.58,3.58,0,0,1-2.57-1c-.94-.95-.94-1.94-.94-4.07s0-3.12.94-4.07a3.58,3.58,0,0,1,2.57-1,3.39,3.39,0,0,1,3.49,3h-1.1a2.37,2.37,0,0,0-2.39-2,2.42,2.42,0,0,0-1.73.71c-.63.65-.71,1.34-.71,3.45s.07,2.8.71,3.45a2.46,2.46,0,0,0,4.15-1.33h1.07A3.39,3.39,0,0,1,74.27,38.77Z"/><path class="cls-1" d="M83.22,29.59v9.1H82.15v-9.1H79.24v-1h6.89v1Z"/><path class="cls-1" d="M88.44,38.69V28.63h1.07V38.69Z"/><path class="cls-1" d="M98.54,37.73a3.68,3.68,0,0,1-5.14,0c-.94-.95-.94-1.94-.94-4.07s0-3.12.94-4.07a3.68,3.68,0,0,1,5.14,0c.94.95.94,1.94.94,4.07S99.49,36.78,98.54,37.73Zm-.83-7.5a2.45,2.45,0,0,0-3.47,0c-.63.65-.71,1.33-.71,3.43s.07,2.78.71,3.43a2.45,2.45,0,0,0,3.47,0c.63-.65.71-1.33.71-3.43S98.34,30.87,97.71,30.22Z"/><path class="cls-1" d="M108.85,38.69l-5.33-8.07v8.07h-1.07V28.63h1l5.33,8v-8h1.07V38.69Z"/><path class="cls-1" d="M33.29,3.89V21.33H31.23V3.89H25.65V2H38.86V3.89Z"/><path class="cls-1" d="M42.47,21.33V2h12V3.89H44.52v6.8H53v1.84H44.52v7h9.91v1.84Z"/><path class="cls-1" d="M73.16,21.33V6.68L67.89,18.3H66.13L60.77,6.68V21.33H58.71V2h2.06L67,15.72,73.16,2h2.06V21.33Z"/><path class="cls-1" d="M88,13.39H82.86v7.94H80.8V2H88c3.52,0,6,2.19,6,5.66S91.5,13.39,88,13.39Zm-.19-9.51H82.86v7.67h4.93c2.41,0,4.09-1.3,4.09-3.85S90.2,3.89,87.79,3.89Z"/><path class="cls-1" d="M104.3,21.49A6.36,6.36,0,0,1,97.59,15V2h2.06V14.8c0,2.92,1.84,4.85,4.66,4.85A4.49,4.49,0,0,0,109,14.8V2H111V15A6.39,6.39,0,0,1,104.3,21.49Z"/><path class="cls-1" d="M127.42,21.33,123,12.77h-4.63v8.56h-2.06V2h7.39c3.36,0,5.71,2,5.71,5.36a5,5,0,0,1-4.2,5.17l4.57,8.75ZM123.55,3.89h-5.14V11h5.14c2.25,0,3.84-1.16,3.84-3.52S125.8,3.89,123.55,3.89Z"/><path class="cls-1" d="M132.09,13.16V11.29h7.64v1.87Z"/><path class="cls-1" d="M151.9,21.34h-7.73V1.46h7.48c3.46,0,5.86,2,5.86,5.3a4.55,4.55,0,0,1-2.93,4.35,4.81,4.81,0,0,1,3.24,4.72C157.82,19.44,155.42,21.34,151.9,21.34Zm-.42-18H146.3v6.9h5.19c2.2,0,3.91-1.09,3.91-3.46S153.69,3.36,151.49,3.36Zm.22,8.79H146.3v7.29h5.41c2.46,0,4-1.42,4-3.66S154.16,12.15,151.71,12.15Z"/><path class="cls-1" d="M170.12,10.23a2.87,2.87,0,0,0-2.37-1c-2,0-3.29,1.59-3.29,3.68v8.43h-2V7.6h2V9.28a4.61,4.61,0,0,1,3.85-1.84,4.23,4.23,0,0,1,3.29,1.28Z"/><path class="cls-1" d="M175.46,15c0,3,1.42,4.75,4,4.75a4.5,4.5,0,0,0,3.6-1.56l1.37,1.2a6.28,6.28,0,0,1-5,2.12c-3.63,0-6-2.18-6-7,0-4.44,2.15-7,5.64-7s5.63,2.57,5.63,6.64V15Zm6.83-3.8a3.52,3.52,0,0,0-6.42,0,5.78,5.78,0,0,0-.42,2.29h7.25A5.78,5.78,0,0,0,182.29,11.2Z"/><path class="cls-1" d="M190.25,15c0,3,1.42,4.75,4,4.75a4.5,4.5,0,0,0,3.6-1.56l1.37,1.2a6.28,6.28,0,0,1-5,2.12c-3.63,0-6-2.18-6-7,0-4.44,2.15-7,5.64-7s5.63,2.57,5.63,6.64V15Zm6.83-3.8a3.52,3.52,0,0,0-6.42,0,5.78,5.78,0,0,0-.42,2.29h7.25A5.78,5.78,0,0,0,197.08,11.2Z"/><path class="cls-1" d="M202.66,21.34V19.61l7.64-10.22h-7.22V7.6h9.54v1.7L205,19.55h7.67v1.79Z"/><path class="cls-1" d="M217.84,15c0,3,1.42,4.75,4,4.75a4.5,4.5,0,0,0,3.6-1.56l1.37,1.2a6.28,6.28,0,0,1-5,2.12c-3.63,0-6-2.18-6-7,0-4.44,2.15-7,5.64-7s5.63,2.57,5.63,6.64V15Zm6.83-3.8a3.52,3.52,0,0,0-6.42,0,5.78,5.78,0,0,0-.42,2.29h7.25A5.78,5.78,0,0,0,224.68,11.2Z"/><path class="cls-1" d="M232.24,11.06a2.61,2.61,0,1,1,2.61-2.61A2.61,2.61,0,0,1,232.24,11.06Zm0-4.84a2.23,2.23,0,1,0,2.2,2.23A2.21,2.21,0,0,0,232.24,6.22Zm.63,3.65-.66-1.17h-.43V9.88h-.4V7h1a.87.87,0,0,1,.9.86.79.79,0,0,1-.61.79l.68,1.22Zm-.55-2.51h-.53v1h.53a.5.5,0,0,0,.54-.5A.51.51,0,0,0,232.32,7.37Z"/><path class="cls-1" d="M132.37,13.16V11.29H140v1.87Z"/><path class="cls-1" d="M9.25,5.12A2.56,2.56,0,1,0,6.7,2.56,2.56,2.56,0,0,0,9.25,5.12"/><path class="cls-1" d="M9.25,20A2.56,2.56,0,1,0,6.7,17.44,2.56,2.56,0,0,0,9.25,20"/><path class="cls-1" d="M16,16.57A2.56,2.56,0,1,0,13.46,14,2.56,2.56,0,0,0,16,16.57"/><path class="cls-1" d="M2.56,16.57A2.56,2.56,0,1,0,0,14a2.56,2.56,0,0,0,2.56,2.56"/><path class="cls-1" d="M16,8.91a2.56,2.56,0,1,0-2.56-2.56A2.56,2.56,0,0,0,16,8.91"/><path class="cls-1" d="M2.56,8.91A2.56,2.56,0,1,0,0,6.35,2.56,2.56,0,0,0,2.56,8.91"/></g></g></svg>