<svg xmlns="http://www.w3.org/2000/svg" viewBox="0 0 221.49 39.21"><defs><style>.cls-1{fill:#fff;}</style></defs><title>cloud_logotype</title><g id="Layer_2" data-name="Layer 2"><g id="Layer_1-2" data-name="Layer 1"><path class="cls-1" d="M30.38,39.21a3.62,3.62,0,0,1-2.6-1.06c-1-1-1-2-1-4.11s0-3.16,1-4.11a3.63,3.63,0,0,1,2.6-1.06,3.43,3.43,0,0,1,3.53,3H32.79a2.4,2.4,0,0,0-2.41-2.06,2.45,2.45,0,0,0-1.76.71c-.64.66-.71,1.36-.71,3.49s.07,2.83.71,3.48a2.49,2.49,0,0,0,4.2-1.34h1.09A3.43,3.43,0,0,1,30.38,39.21Z"/><path class="cls-1" d="M42.35,38.16a3.73,3.73,0,0,1-5.2,0c-1-1-1-2-1-4.11s0-3.16,1-4.11a3.72,3.72,0,0,1,5.2,0c1,1,1,2,1,4.11S43.3,37.2,42.35,38.16Zm-.84-7.58a2.48,2.48,0,0,0-3.51,0c-.64.66-.71,1.34-.71,3.47s.07,2.81.71,3.47a2.48,2.48,0,0,0,3.51,0c.64-.66.71-1.34.71-3.47S42.15,31.23,41.5,30.57Z"/><path class="cls-1" d="M46.29,39.13V29h1.09v9.2h5.2v1Z"/><path class="cls-1" d="M54.9,39.13V29H56v9.2h5.2v1Z"/><path class="cls-1" d="M63.49,39.13V29h6.31v1H64.58v3.58H69v1H64.58v3.67h5.23v1Z"/><path class="cls-1" d="M75.66,39.21a3.62,3.62,0,0,1-2.6-1.06c-1-1-1-2-1-4.11s0-3.16,1-4.11a3.63,3.63,0,0,1,2.6-1.06,3.43,3.43,0,0,1,3.53,3H78.08a2.4,2.4,0,0,0-2.41-2.06,2.45,2.45,0,0,0-1.76.71c-.64.66-.71,1.36-.71,3.49s.07,2.83.71,3.48a2.49,2.49,0,0,0,4.2-1.34h1.09A3.43,3.43,0,0,1,75.66,39.21Z"/><path class="cls-1" d="M84.72,29.93v9.2H83.63v-9.2H80.69V29h7v1Z"/><path class="cls-1" d="M90,39.13V29h1.09V39.13Z"/><path class="cls-1" d="M100.21,38.16a3.73,3.73,0,0,1-5.2,0c-1-1-1-2-1-4.11s0-3.16,1-4.11a3.72,3.72,0,0,1,5.2,0c1,1,1,2,1,4.11S101.17,37.2,100.21,38.16Zm-.84-7.58a2.48,2.48,0,0,0-3.51,0c-.64.66-.71,1.34-.71,3.47s.07,2.81.71,3.47a2.48,2.48,0,0,0,3.51,0c.64-.66.71-1.34.71-3.47S100,31.23,99.37,30.57Z"/><path class="cls-1" d="M110.63,39.13,105.24,31v8.16h-1.09V29h1l5.4,8.13V29h1.09V39.13Z"/><path class="cls-1" d="M34.21,3.92V21.57H32.13V3.92H26.49V2.06H39.85V3.92Z"/><path class="cls-1" d="M43.49,21.57V2.06H55.6V3.92h-10V10.8h8.55v1.86H45.57v7h10v1.86Z"/><path class="cls-1" d="M74.55,21.57V6.75L69.21,18.5H67.43L62,6.75V21.57H59.92V2.06H62L68.36,15.9,74.55,2.06h2.08V21.57Z"/><path class="cls-1" d="M89.52,13.54H84.35v8H82.27V2.06h7.26c3.56,0,6,2.22,6,5.73S93.09,13.54,89.52,13.54Zm-.19-9.62h-5v7.75h5c2.44,0,4.14-1.32,4.14-3.89S91.77,3.92,89.33,3.92Z"/><path class="cls-1" d="M106,21.74a6.44,6.44,0,0,1-6.79-6.6V2.06h2.08V15c0,3,1.86,4.91,4.71,4.91A4.55,4.55,0,0,0,110.77,15V2.06h2.08V15.13A6.46,6.46,0,0,1,106,21.74Z"/><path class="cls-1" d="M129.42,21.57,125,12.91H120.3v8.66h-2.08V2.06h7.48c3.4,0,5.78,2.05,5.78,5.43a5.06,5.06,0,0,1-4.25,5.23l4.63,8.85ZM125.5,3.92h-5.2v7.15h5.2c2.27,0,3.89-1.18,3.89-3.56S127.78,3.92,125.5,3.92Z"/><path class="cls-1" d="M134.14,13.31V11.42h7.73v1.89Z"/><path class="cls-1" d="M152.62,21.75a7.15,7.15,0,0,1-5.13-2.09c-1.89-1.89-1.89-3.87-1.89-8.13s0-6.24,1.89-8.13a7.16,7.16,0,0,1,5.13-2.09,6.78,6.78,0,0,1,7,6h-2.2a4.74,4.74,0,0,0-4.77-4.07,4.83,4.83,0,0,0-3.47,1.41c-1.27,1.3-1.41,2.68-1.41,6.89s.14,5.59,1.41,6.89a4.92,4.92,0,0,0,8.29-2.66h2.14A6.78,6.78,0,0,1,152.62,21.75Z"/><path class="cls-1" d="M167.43,21.58c-2.43,0-3.53-1.58-3.53-3.7V1.47h2V17.8c0,1.36.45,2,1.86,2h1.1v1.75Z"/><path class="cls-1" d="M181,20.17a5.79,5.79,0,0,1-8,0c-1.41-1.44-1.69-3.39-1.69-5.54s.28-4.09,1.69-5.54a5.79,5.79,0,0,1,8,0c1.41,1.44,1.69,3.39,1.69,5.54S182.42,18.73,181,20.17Zm-1.44-9.83a3.56,3.56,0,0,0-2.54-1,3.49,3.49,0,0,0-2.51,1c-1,1-1.13,2.74-1.13,4.29s.11,3.28,1.13,4.29a3.49,3.49,0,0,0,2.51,1,3.55,3.55,0,0,0,2.54-1c1-1,1.1-2.74,1.1-4.29S180.58,11.36,179.57,10.34Z"/><path class="cls-1" d="M195.82,21.58V20a5.09,5.09,0,0,1-3.92,1.72,4.93,4.93,0,0,1-3.58-1.3,5.19,5.19,0,0,1-1.41-3.9V7.69h2v8.56c0,2.46,1.3,3.7,3.39,3.7s3.47-1.27,3.47-3.7V7.69h2v13.9Z"/><path class="cls-1" d="M211.2,21.58V19.92a4.5,4.5,0,0,1-4,1.84,4.83,4.83,0,0,1-3.39-1.21c-1.41-1.41-1.69-3.73-1.69-5.9s.28-4.49,1.69-5.9a4.83,4.83,0,0,1,3.39-1.21,4.46,4.46,0,0,1,3.92,1.78V1.47h2V21.58Zm-3.5-12.26c-3,0-3.5,2.6-3.5,5.31s.48,5.31,3.5,5.31,3.47-2.6,3.47-5.31S210.72,9.32,207.71,9.32Z"/><path class="cls-1" d="M218.85,11.19a2.64,2.64,0,1,1,2.64-2.64A2.64,2.64,0,0,1,218.85,11.19Zm0-4.89a2.25,2.25,0,1,0,2.22,2.25A2.24,2.24,0,0,0,218.85,6.29Zm.64,3.7-.66-1.18h-.44V10H218V7.09h1a.88.88,0,0,1,.91.87.8.8,0,0,1-.62.79L220,10Zm-.56-2.54h-.54v1h.54a.51.51,0,0,0,.55-.5A.51.51,0,0,0,218.93,7.45Z"/><path class="cls-1" d="M133.87,13.31V11.42h7.73v1.89Z"/><path class="cls-1" d="M9.36,5.17A2.59,2.59,0,1,0,6.77,2.59,2.59,2.59,0,0,0,9.36,5.17"/><path class="cls-1" d="M9.36,20.23a2.59,2.59,0,1,0-2.59-2.59,2.59,2.59,0,0,0,2.59,2.59"/><path class="cls-1" d="M16.2,16.76a2.59,2.59,0,1,0-2.59-2.59,2.59,2.59,0,0,0,2.59,2.59"/><path class="cls-1" d="M2.59,16.76A2.59,2.59,0,1,0,0,14.17a2.59,2.59,0,0,0,2.59,2.59"/><path class="cls-1" d="M16.2,9a2.59,2.59,0,1,0-2.59-2.59A2.59,2.59,0,0,0,16.2,9"/><path class="cls-1" d="M2.59,9A2.59,2.59,0,1,0,0,6.43,2.59,2.59,0,0,0,2.59,9"/></g></g></svg>