<svg xmlns="http://www.w3.org/2000/svg" viewBox="0 0 253.99 39.21"><defs><style>.cls-1{fill:#fff;}</style></defs><title>contour_logotype</title><g id="Layer_2" data-name="Layer 2"><g id="Layer_1-2" data-name="Layer 1"><path class="cls-1" d="M30.12,39.21a3.62,3.62,0,0,1-2.6-1.06c-1-1-1-2-1-4.11s0-3.16,1-4.11a3.63,3.63,0,0,1,2.6-1.06,3.43,3.43,0,0,1,3.53,3H32.53a2.4,2.4,0,0,0-2.41-2.06,2.45,2.45,0,0,0-1.76.71c-.64.66-.71,1.36-.71,3.49s.07,2.83.71,3.48a2.49,2.49,0,0,0,4.2-1.34h1.09A3.43,3.43,0,0,1,30.12,39.21Z"/><path class="cls-1" d="M42.08,38.16a3.73,3.73,0,0,1-5.2,0c-1-1-1-2-1-4.11s0-3.16,1-4.11a3.72,3.72,0,0,1,5.2,0c1,1,1,2,1,4.11S43,37.2,42.08,38.16Zm-.84-7.58a2.48,2.48,0,0,0-3.51,0c-.64.66-.71,1.34-.71,3.47s.07,2.81.71,3.47a2.48,2.48,0,0,0,3.51,0c.64-.66.71-1.34.71-3.47S41.88,31.23,41.24,30.57Z"/><path class="cls-1" d="M46,39.13V29h1.09v9.2h5.2v1Z"/><path class="cls-1" d="M54.64,39.13V29h1.09v9.2h5.2v1Z"/><path class="cls-1" d="M63.23,39.13V29h6.31v1H64.32v3.58h4.46v1H64.32v3.67h5.23v1Z"/><path class="cls-1" d="M75.4,39.21a3.62,3.62,0,0,1-2.6-1.06c-1-1-1-2-1-4.11s0-3.16,1-4.11a3.63,3.63,0,0,1,2.6-1.06,3.43,3.43,0,0,1,3.53,3H77.81a2.4,2.4,0,0,0-2.41-2.06,2.45,2.45,0,0,0-1.76.71c-.64.66-.71,1.36-.71,3.49s.07,2.83.71,3.48a2.49,2.49,0,0,0,4.2-1.34h1.09A3.43,3.43,0,0,1,75.4,39.21Z"/><path class="cls-1" d="M84.45,29.93v9.2H83.37v-9.2H80.43V29h7v1Z"/><path class="cls-1" d="M89.72,39.13V29h1.09V39.13Z"/><path class="cls-1" d="M99.95,38.16a3.73,3.73,0,0,1-5.2,0c-1-1-1-2-1-4.11s0-3.16,1-4.11a3.72,3.72,0,0,1,5.2,0c1,1,1,2,1,4.11S100.9,37.2,99.95,38.16Zm-.84-7.58a2.48,2.48,0,0,0-3.51,0c-.64.66-.71,1.34-.71,3.47s.07,2.81.71,3.47a2.48,2.48,0,0,0,3.51,0c.64-.66.71-1.34.71-3.47S99.75,31.23,99.1,30.57Z"/><path class="cls-1" d="M110.37,39.13,105,31v8.16h-1.09V29h1l5.4,8.13V29h1.09V39.13Z"/><path class="cls-1" d="M33.95,3.92V21.57H31.87V3.92H26.23V2.06H39.59V3.92Z"/><path class="cls-1" d="M43.23,21.57V2.06H55.34V3.92h-10V10.8h8.55v1.86H45.31v7h10v1.86Z"/><path class="cls-1" d="M74.29,21.57V6.75L68.94,18.5H67.16L61.74,6.75V21.57H59.66V2.06h2.08L68.1,15.9,74.29,2.06h2.08V21.57Z"/><path class="cls-1" d="M89.26,13.54H84.09v8H82V2.06h7.26c3.56,0,6,2.22,6,5.73S92.82,13.54,89.26,13.54Zm-.19-9.62h-5v7.75h5c2.44,0,4.14-1.32,4.14-3.89S91.51,3.92,89.07,3.92Z"/><path class="cls-1" d="M105.77,21.74A6.44,6.44,0,0,1,99,15.13V2.06h2.08V15c0,3,1.86,4.91,4.71,4.91A4.55,4.55,0,0,0,110.51,15V2.06h2.08V15.13A6.46,6.46,0,0,1,105.77,21.74Z"/><path class="cls-1" d="M129.16,21.57l-4.44-8.66H120v8.66H118V2.06h7.48c3.4,0,5.78,2.05,5.78,5.43A5.06,5.06,0,0,1,127,12.72l4.63,8.85ZM125.24,3.92H120v7.15h5.2c2.27,0,3.89-1.18,3.89-3.56S127.52,3.92,125.24,3.92Z"/><path class="cls-1" d="M133.87,13.31V11.42h7.73v1.89Z"/><path class="cls-1" d="M152.35,21.75a7.15,7.15,0,0,1-5.13-2.09c-1.89-1.89-1.89-3.87-1.89-8.13s0-6.24,1.89-8.13a7.16,7.16,0,0,1,5.13-2.09,6.78,6.78,0,0,1,7,6h-2.2a4.74,4.74,0,0,0-4.77-4.07,4.83,4.83,0,0,0-3.47,1.41c-1.27,1.3-1.41,2.68-1.41,6.89s.14,5.59,1.41,6.89a4.92,4.92,0,0,0,8.29-2.66h2.14A6.78,6.78,0,0,1,152.35,21.75Z"/><path class="cls-1" d="M172.62,20.17a5.79,5.79,0,0,1-8,0c-1.41-1.44-1.69-3.39-1.69-5.54s.28-4.09,1.69-5.54a5.79,5.79,0,0,1,8,0c1.41,1.44,1.69,3.39,1.69,5.54S174,18.73,172.62,20.17Zm-1.44-9.83a3.56,3.56,0,0,0-2.54-1,3.49,3.49,0,0,0-2.51,1c-1,1-1.13,2.74-1.13,4.29s.11,3.28,1.13,4.29a3.49,3.49,0,0,0,2.51,1,3.55,3.55,0,0,0,2.54-1c1-1,1.1-2.74,1.1-4.29S172.19,11.36,171.18,10.34Z"/><path class="cls-1" d="M187.55,21.58V13c0-2.46-1.33-3.7-3.41-3.7s-3.44,1.27-3.44,3.7v8.56h-2V7.69h2V9.21a5,5,0,0,1,3.89-1.69,4.86,4.86,0,0,1,3.56,1.3,5.14,5.14,0,0,1,1.44,3.87v8.9Z"/><path class="cls-1" d="M198.41,21.58a3.41,3.41,0,0,1-3.55-3.73V9.32h-1.75V7.77h1.75V3.42h2V7.77h3V9.32h-3V17.8c0,1.27.59,2,1.89,2h1.07v1.75Z"/><path class="cls-1" d="M212.69,20.17a5.79,5.79,0,0,1-8,0c-1.41-1.44-1.69-3.39-1.69-5.54s.28-4.09,1.69-5.54a5.79,5.79,0,0,1,8,0c1.41,1.44,1.69,3.39,1.69,5.54S214.1,18.73,212.69,20.17Zm-1.44-9.83a3.56,3.56,0,0,0-2.54-1,3.49,3.49,0,0,0-2.51,1c-1,1-1.13,2.74-1.13,4.29s.11,3.28,1.13,4.29a3.49,3.49,0,0,0,2.51,1,3.55,3.55,0,0,0,2.54-1c1-1,1.1-2.74,1.1-4.29S212.27,11.36,211.25,10.34Z"/><path class="cls-1" d="M227.51,21.58V20a5.08,5.08,0,0,1-3.92,1.72,4.93,4.93,0,0,1-3.58-1.3,5.19,5.19,0,0,1-1.41-3.9V7.69h2v8.56c0,2.46,1.3,3.7,3.39,3.7s3.47-1.27,3.47-3.7V7.69h2v13.9Z"/><path class="cls-1" d="M242.35,10.34a2.9,2.9,0,0,0-2.4-1c-2,0-3.33,1.61-3.33,3.73v8.53h-2V7.69h2v1.7a4.66,4.66,0,0,1,3.89-1.86,4.27,4.27,0,0,1,3.33,1.3Z"/><path class="cls-1" d="M248.29,7.66v3.75h-.58V7.66h-1.18V7.13h3v.53Zm5.13,3.75V8.32l-1,2h-.56l-1-2v3.09h-.58V7.13h.58l1.3,2.6,1.3-2.6H254v4.29Z"/><path class="cls-1" d="M9.36,5.17A2.59,2.59,0,1,0,6.77,2.59,2.59,2.59,0,0,0,9.36,5.17"/><path class="cls-1" d="M9.36,20.23a2.59,2.59,0,1,0-2.59-2.59,2.59,2.59,0,0,0,2.59,2.59"/><path class="cls-1" d="M16.2,16.76a2.59,2.59,0,1,0-2.59-2.59,2.59,2.59,0,0,0,2.59,2.59"/><path class="cls-1" d="M2.59,16.76A2.59,2.59,0,1,0,0,14.17a2.59,2.59,0,0,0,2.59,2.59"/><path class="cls-1" d="M16.2,9a2.59,2.59,0,1,0-2.59-2.59A2.59,2.59,0,0,0,16.2,9"/><path class="cls-1" d="M2.59,9A2.59,2.59,0,1,0,0,6.43,2.59,2.59,0,0,0,2.59,9"/></g></g></svg>