<svg xmlns="http://www.w3.org/2000/svg" viewBox="0 0 201.02 39.21"><defs><style>.cls-1{fill:#fff;}</style></defs><title>flex_logotype</title><g id="Layer_2" data-name="Layer 2"><g id="Layer_1-2" data-name="Layer 1"><path class="cls-1" d="M29.84,39.21a3.62,3.62,0,0,1-2.6-1.06c-1-1-1-2-1-4.11s0-3.16,1-4.11a3.63,3.63,0,0,1,2.6-1.06,3.43,3.43,0,0,1,3.53,3H32.25a2.4,2.4,0,0,0-2.41-2.06,2.45,2.45,0,0,0-1.76.71c-.64.66-.71,1.36-.71,3.49s.07,2.83.71,3.48a2.49,2.49,0,0,0,4.2-1.34h1.09A3.43,3.43,0,0,1,29.84,39.21Z"/><path class="cls-1" d="M41.82,38.16a3.73,3.73,0,0,1-5.2,0c-1-1-1-2-1-4.11s0-3.16,1-4.11a3.72,3.72,0,0,1,5.2,0c1,1,1,2,1,4.11S42.77,37.2,41.82,38.16ZM41,30.57a2.48,2.48,0,0,0-3.51,0c-.64.66-.71,1.34-.71,3.47s.07,2.81.71,3.47a2.48,2.48,0,0,0,3.51,0c.64-.66.71-1.34.71-3.47S41.62,31.23,41,30.57Z"/><path class="cls-1" d="M45.76,39.13V29h1.09v9.2H52v1Z"/><path class="cls-1" d="M54.35,39.13V29h1.09v9.2h5.2v1Z"/><path class="cls-1" d="M63,39.13V29h6.31v1H64v3.58h4.46v1H64v3.67h5.23v1Z"/><path class="cls-1" d="M75.12,39.21a3.62,3.62,0,0,1-2.6-1.06c-1-1-1-2-1-4.11s0-3.16,1-4.11a3.63,3.63,0,0,1,2.6-1.06,3.43,3.43,0,0,1,3.53,3H77.53a2.4,2.4,0,0,0-2.41-2.06,2.45,2.45,0,0,0-1.76.71c-.64.66-.71,1.36-.71,3.49s.07,2.83.71,3.48a2.49,2.49,0,0,0,4.2-1.34h1.09A3.43,3.43,0,0,1,75.12,39.21Z"/><path class="cls-1" d="M84.17,29.93v9.2H83.09v-9.2H80.15V29h7v1Z"/><path class="cls-1" d="M89.44,39.13V29h1.09V39.13Z"/><path class="cls-1" d="M99.67,38.16a3.73,3.73,0,0,1-5.2,0c-1-1-1-2-1-4.11s0-3.16,1-4.11a3.72,3.72,0,0,1,5.2,0c1,1,1,2,1,4.11S100.63,37.2,99.67,38.16Zm-.84-7.58a2.48,2.48,0,0,0-3.51,0c-.64.66-.71,1.34-.71,3.47s.07,2.81.71,3.47a2.48,2.48,0,0,0,3.51,0c.64-.66.71-1.34.71-3.47S99.47,31.23,98.83,30.57Z"/><path class="cls-1" d="M110.09,39.13,104.69,31v8.16h-1.09V29h1l5.4,8.13V29h1.08V39.13Z"/><path class="cls-1" d="M33.67,3.92V21.57H31.59V3.92H25.94V2.06H39.31V3.92Z"/><path class="cls-1" d="M42.95,21.57V2.06H55.06V3.92H45V10.8h8.55v1.86H45v7h10v1.86Z"/><path class="cls-1" d="M74,21.57V6.75L68.66,18.5H66.88L61.46,6.75V21.57H59.38V2.06h2.08L67.81,15.9,74,2.06h2.08V21.57Z"/><path class="cls-1" d="M89,13.54H83.8v8H81.72V2.06H89c3.56,0,6,2.22,6,5.73S92.54,13.54,89,13.54Zm-.19-9.62h-5v7.75h5c2.44,0,4.14-1.32,4.14-3.89S91.23,3.92,88.79,3.92Z"/><path class="cls-1" d="M105.49,21.74a6.44,6.44,0,0,1-6.79-6.6V2.06h2.08V15c0,3,1.86,4.91,4.71,4.91A4.55,4.55,0,0,0,110.23,15V2.06h2.08V15.13A6.46,6.46,0,0,1,105.49,21.74Z"/><path class="cls-1" d="M128.88,21.57l-4.44-8.66h-4.68v8.66h-2.08V2.06h7.48c3.4,0,5.78,2.05,5.78,5.43a5.06,5.06,0,0,1-4.25,5.23l4.63,8.85ZM125,3.92h-5.2v7.15H125c2.27,0,3.89-1.18,3.89-3.56S127.23,3.92,125,3.92Z"/><path class="cls-1" d="M133.59,13.31V11.42h7.73v1.89Z"/><path class="cls-1" d="M148,3.39v7.4h8.8v1.92H148v8.87h-2.14V1.47h12.47V3.39Z"/><path class="cls-1" d="M165.29,21.58c-2.43,0-3.53-1.58-3.53-3.7V1.47h2V17.8c0,1.36.45,2,1.86,2h1.1v1.75Z"/><path class="cls-1" d="M171.21,15.17c0,3,1.44,4.8,4.09,4.8a4.55,4.55,0,0,0,3.64-1.58l1.38,1.21a6.35,6.35,0,0,1-5.08,2.15c-3.67,0-6.07-2.2-6.07-7.12,0-4.49,2.17-7.12,5.7-7.12s5.7,2.6,5.7,6.72v.93Zm6.91-3.84a3.56,3.56,0,0,0-6.49,0,5.85,5.85,0,0,0-.42,2.32h7.34A5.85,5.85,0,0,0,178.12,11.33Z"/><path class="cls-1" d="M191.92,21.58l-3.33-5.39-3.39,5.39h-2.46l4.71-7.09L183,7.69h2.45l3.19,5.14,3.13-5.14h2.45l-4.51,6.81,4.71,7.09Z"/><path class="cls-1" d="M198.38,11.19A2.64,2.64,0,1,1,201,8.54,2.64,2.64,0,0,1,198.38,11.19Zm0-4.89a2.25,2.25,0,1,0,2.22,2.25A2.24,2.24,0,0,0,198.38,6.29ZM199,10l-.66-1.18h-.44V10h-.4V7.09h1a.88.88,0,0,1,.91.87.8.8,0,0,1-.62.79l.69,1.23Zm-.56-2.54h-.54v1h.54A.51.51,0,0,0,199,8,.51.51,0,0,0,198.46,7.45Z"/><path class="cls-1" d="M133.87,13.31V11.42h7.73v1.89Z"/><path class="cls-1" d="M9.36,5.17A2.59,2.59,0,1,0,6.77,2.59,2.59,2.59,0,0,0,9.36,5.17"/><path class="cls-1" d="M9.36,20.23a2.59,2.59,0,1,0-2.59-2.59,2.59,2.59,0,0,0,2.59,2.59"/><path class="cls-1" d="M16.2,16.76a2.59,2.59,0,1,0-2.59-2.59,2.59,2.59,0,0,0,2.59,2.59"/><path class="cls-1" d="M2.59,16.76A2.59,2.59,0,1,0,0,14.17a2.59,2.59,0,0,0,2.59,2.59"/><path class="cls-1" d="M16.2,9a2.59,2.59,0,1,0-2.59-2.59A2.59,2.59,0,0,0,16.2,9"/><path class="cls-1" d="M2.59,9A2.59,2.59,0,1,0,0,6.43,2.59,2.59,0,0,0,2.59,9"/></g></g></svg>